<svg width="25" height="33" viewBox="0 0 25 33" fill="none" xmlns="http://www.w3.org/2000/svg">
<path d="M14.6612 7.02584L21.8646 14.2292C22.0329 14.4034 22.2341 14.5423 22.4566 14.6379C22.6791 14.7335 22.9184 14.7838 23.1605 14.7859C23.4027 14.788 23.6428 14.7419 23.8669 14.6502C24.091 14.5585 24.2946 14.4231 24.4659 14.2518C24.6371 14.0806 24.7725 13.877 24.8642 13.6529C24.9559 13.4288 25.002 13.1886 24.9999 12.9465C24.9978 12.7043 24.9475 12.465 24.8519 12.2426C24.7564 12.0201 24.6174 11.8188 24.4433 11.6506L14.1269 1.33425C13.7849 0.992374 13.3212 0.800316 12.8376 0.800316C12.354 0.800316 11.8903 0.992374 11.5483 1.33425L1.23192 11.6506C0.899725 11.9945 0.715914 12.4552 0.720068 12.9334C0.724222 13.4115 0.916016 13.8689 1.25413 14.207C1.59225 14.5451 2.04964 14.7369 2.5278 14.7411C3.00595 14.7452 3.46661 14.5614 3.81055 14.2292L11.0139 7.02584L11.0139 31.1764C11.0139 31.66 11.2061 32.1239 11.5481 32.4659C11.8901 32.8079 12.3539 33 12.8376 33C13.3213 33 13.7851 32.8079 14.1271 32.4659C14.4691 32.1239 14.6612 31.66 14.6612 31.1764L14.6612 7.02584Z" fill="#FF61A2"/>
</svg>
