<svg width="40" height="44" viewBox="0 0 40 44" fill="none" xmlns="http://www.w3.org/2000/svg">
<path d="M24.6154 3.70974C24.6154 4.26203 24.1677 4.70974 23.6154 4.70974H13.3077C12.7554 4.70974 12.3077 4.26203 12.3077 3.70974V1.60718C12.3077 1.05489 12.7554 0.607178 13.3077 0.607178L23.6154 0.607178C24.1677 0.607178 24.6154 1.05489 24.6154 1.60718V3.70974ZM20.5128 37.5303C20.5128 39.1543 20.8279 40.7056 21.3929 42.1096C21.6442 42.7341 21.2998 43.4691 20.6316 43.5512C19.9235 43.6383 19.2002 43.6841 18.4615 43.6841C13.5652 43.6841 8.86947 41.7391 5.40726 38.2768C1.94505 34.8146 0 30.1189 0 25.2226C0 20.3263 1.94505 15.6305 5.40726 12.1683C8.86947 8.70607 13.5652 6.76102 18.4615 6.76102C22.4887 6.76102 26.2168 8.06278 29.2711 10.3079C29.6863 10.613 30.2659 10.5836 30.6276 10.2167L32.2457 8.57589C32.6153 8.20103 33.2138 8.17554 33.5997 8.53359C34.1431 9.0377 34.6582 9.55818 35.165 10.105C35.524 10.4923 35.504 11.0929 35.1306 11.4663L33.5157 13.0812C33.1551 13.4419 33.1262 14.0145 33.4255 14.4274C35.6963 17.5605 36.925 21.3379 36.9231 25.2226C36.9231 25.5743 36.5766 25.8215 36.2388 25.7236C35.14 25.405 34.0083 25.2226 32.8205 25.2226C26.0308 25.2226 20.5128 30.7405 20.5128 37.5303ZM20.5128 13.9149C20.5128 13.3626 20.0651 12.9149 19.5128 12.9149H17.4103C16.858 12.9149 16.4103 13.3626 16.4103 13.9149V26.2738C16.4103 26.8261 16.858 27.2738 17.4103 27.2738H19.5128C20.0651 27.2738 20.5128 26.8261 20.5128 26.2738V13.9149ZM38.3206 31.8992C37.9455 31.4432 37.2589 31.4099 36.8413 31.8274L30.9635 37.7052C30.573 38.0957 29.9398 38.0957 29.5493 37.7052L27.702 35.8579C27.3115 35.4674 26.6783 35.4674 26.2878 35.8579L25.2924 36.8532C24.9138 37.2318 24.9006 37.8414 25.2624 38.2361L29.5507 42.9142C29.9354 43.3339 30.5924 43.3482 30.9949 42.9456L39.3583 34.5822C39.7224 34.2182 39.7505 33.6373 39.4235 33.2397L38.3206 31.8992Z" fill="#94143D"/>
</svg>
