<svg width="18" height="18" viewBox="0 0 18 18" fill="none" xmlns="http://www.w3.org/2000/svg">
<path d="M8.99984 10.1667L11.4165 12.5834C11.5693 12.7362 11.7637 12.8126 11.9998 12.8126C12.2359 12.8126 12.4304 12.7362 12.5832 12.5834C12.7359 12.4306 12.8123 12.2362 12.8123 12.0001C12.8123 11.764 12.7359 11.5695 12.5832 11.4167L10.1665 9.00008L12.5832 6.58341C12.7359 6.43064 12.8123 6.23619 12.8123 6.00008C12.8123 5.76397 12.7359 5.56953 12.5832 5.41675C12.4304 5.26397 12.2359 5.18758 11.9998 5.18758C11.7637 5.18758 11.5693 5.26397 11.4165 5.41675L8.99984 7.83341L6.58317 5.41675C6.43039 5.26397 6.23595 5.18758 5.99984 5.18758C5.76373 5.18758 5.56928 5.26397 5.4165 5.41675C5.26373 5.56953 5.18734 5.76397 5.18734 6.00008C5.18734 6.23619 5.26373 6.43064 5.4165 6.58341L7.83317 9.00008L5.4165 11.4167C5.26373 11.5695 5.18734 11.764 5.18734 12.0001C5.18734 12.2362 5.26373 12.4306 5.4165 12.5834C5.56928 12.7362 5.76373 12.8126 5.99984 12.8126C6.23595 12.8126 6.43039 12.7362 6.58317 12.5834L8.99984 10.1667ZM8.99984 17.3334C7.84706 17.3334 6.76373 17.1145 5.74984 16.6767C4.73595 16.239 3.854 15.6454 3.10401 14.8959C2.354 14.1465 1.76039 13.2645 1.32317 12.2501C0.885949 11.2356 0.667061 10.1523 0.666505 9.00008C0.665949 7.84786 0.884838 6.76453 1.32317 5.75008C1.76151 4.73564 2.35512 3.85369 3.10401 3.10425C3.85289 2.3548 4.73484 1.76119 5.74984 1.32341C6.76484 0.885637 7.84817 0.666748 8.99984 0.666748C10.1515 0.666748 11.2348 0.885637 12.2498 1.32341C13.2648 1.76119 14.1468 2.3548 14.8957 3.10425C15.6446 3.85369 16.2384 4.73564 16.6773 5.75008C17.1162 6.76453 17.3348 7.84786 17.3332 9.00008C17.3315 10.1523 17.1126 11.2356 16.6765 12.2501C16.2404 13.2645 15.6468 14.1465 14.8957 14.8959C14.1446 15.6454 13.2626 16.2392 12.2498 16.6776C11.2371 17.1159 10.1537 17.3345 8.99984 17.3334Z" fill="#A31643"/>
</svg>
