<svg width="40" height="41" viewBox="0 0 40 41" fill="none" xmlns="http://www.w3.org/2000/svg">
<path d="M21.96 13.0454L31.62 3.38537C31.9675 3.03815 32.3799 2.76278 32.8338 2.57497C33.2877 2.38716 33.7742 2.29059 34.2654 2.29077C34.7566 2.29096 35.243 2.38789 35.6968 2.57605C36.1505 2.7642 36.5628 3.03989 36.91 3.38737C37.2572 3.73484 37.5326 4.14731 37.7204 4.60121C37.9082 5.05511 38.0048 5.54156 38.0046 6.03278C38.0044 6.524 37.9075 7.01038 37.7193 7.46414C37.5312 7.9179 37.2555 8.33015 36.908 8.67737L27.248 18.3354C26.6851 18.8981 25.98 19.2976 25.208 19.4914L22.212 20.2394C21.9141 20.3136 21.6021 20.3095 21.3062 20.2275C21.0103 20.1455 20.7407 19.9884 20.5235 19.7714C20.3063 19.5544 20.1489 19.285 20.0667 18.9892C19.9844 18.6934 19.98 18.3813 20.054 18.0834L20.804 15.0874C20.9977 14.3153 21.3972 13.6083 21.96 13.0454ZM20.546 11.6334L27.886 4.29137H7C6.20435 4.29137 5.44129 4.60744 4.87868 5.17005C4.31607 5.73266 4 6.49572 4 7.29137V27.2914C4 28.087 4.31607 28.8501 4.87868 29.4127C5.44129 29.9753 6.20435 30.2914 7 30.2914H14V34.2914H11C10.7348 34.2914 10.4804 34.3967 10.2929 34.5843C10.1054 34.7718 10 35.0261 10 35.2914C10 35.5566 10.1054 35.8109 10.2929 35.9985C10.4804 36.186 10.7348 36.2914 11 36.2914H29C29.2652 36.2914 29.5196 36.186 29.7071 35.9985C29.8946 35.8109 30 35.5566 30 35.2914C30 35.0261 29.8946 34.7718 29.7071 34.5843C29.5196 34.3967 29.2652 34.2914 29 34.2914H26V30.2914H33C33.7956 30.2914 34.5587 29.9753 35.1213 29.4127C35.6839 28.8501 36 28.087 36 27.2914V12.4114L28.664 19.7514C27.844 20.5694 26.816 21.1514 25.692 21.4314L22.696 22.1794C19.93 22.8714 17.422 20.3654 18.116 17.5994L18.864 14.6014C19.1449 13.4776 19.7255 12.4511 20.544 11.6314M24 30.2914V34.2914H16V30.2914H24Z" fill="white"/>
</svg>
