<svg width="20" height="15" viewBox="0 0 20 15" fill="none" xmlns="http://www.w3.org/2000/svg">
<path d="M13.7372 7.5278L18.8633 3.07428V11.9305L13.7372 7.5278ZM7.13196 8.282L8.93204 9.84457C9.21455 10.0846 9.5829 10.2296 9.98542 10.2296H9.99958H10.0104C10.4138 10.2296 10.7821 10.0837 11.068 9.84207L11.0655 9.84373L12.8655 8.28117L18.3374 12.9805H1.66257L7.13196 8.282ZM1.65507 2.01841H18.3474L10.3296 8.98203C10.2398 9.05405 10.128 9.0929 10.0129 9.09204H10.0013H9.99042C9.87496 9.09286 9.76277 9.05369 9.6729 8.9812L9.67374 8.98203L1.65507 2.01841ZM1.13755 3.07345L6.26276 7.52697L1.13755 11.9272V3.07345ZM19.1383 1.0392C18.9383 0.939195 18.7033 0.880859 18.4541 0.880859H1.54923C1.30779 0.881815 1.06977 0.937971 0.853369 1.04503L0.862536 1.04087C0.60408 1.16877 0.38643 1.36624 0.234055 1.61107C0.0816807 1.8559 0.000624493 2.13838 0 2.42676L0 12.5705C0.000441188 12.981 0.163717 13.3746 0.454003 13.6649C0.744288 13.9552 1.13787 14.1185 1.5484 14.1189H18.4516C18.8621 14.1185 19.2557 13.9552 19.546 13.6649C19.8363 13.3746 19.9996 12.981 20 12.5705V2.42676C20 1.8209 19.6508 1.29588 19.1425 1.04337L19.1333 1.0392H19.1383Z" fill="white"/>
</svg>
