<svg width="40" height="41" viewBox="0 0 40 41" fill="none" xmlns="http://www.w3.org/2000/svg">
<path d="M35.6938 14.2507L20.6938 4.25071C20.4883 4.11367 20.2469 4.04053 20 4.04053C19.7531 4.04053 19.5117 4.11367 19.3062 4.25071L4.30625 14.2507C4.13502 14.365 3.99465 14.5197 3.89761 14.7013C3.80057 14.8828 3.74987 15.0855 3.75 15.2913V31.5413C3.75 32.2044 4.01339 32.8403 4.48223 33.3091C4.95107 33.7779 5.58696 34.0413 6.25 34.0413H33.75C34.413 34.0413 35.0489 33.7779 35.5178 33.3091C35.9866 32.8403 36.25 32.2044 36.25 31.5413V15.2913C36.2501 15.0855 36.1994 14.8828 36.1024 14.7013C36.0054 14.5197 35.865 14.365 35.6938 14.2507ZM15.1125 24.0413L6.25 30.2913V17.7179L15.1125 24.0413ZM17.6703 25.2913H22.3297L31.1781 31.5413H8.82187L17.6703 25.2913ZM24.8875 24.0413L33.75 17.7179V30.2913L24.8875 24.0413ZM20 6.7929L32.7984 15.3257L22.3297 22.7913H17.6734L7.20469 15.3257L20 6.7929Z" fill="white"/>
</svg>
