<svg width="26" height="31" viewBox="0 0 26 31" fill="none" xmlns="http://www.w3.org/2000/svg">
<path fill-rule="evenodd" clip-rule="evenodd" d="M13.4835 29.8793L13.468 29.8821L13.3683 29.9313L13.3401 29.9369L13.3205 29.9313L13.2207 29.8821C13.2057 29.8774 13.1944 29.8798 13.1869 29.8891L13.1813 29.9032L13.1574 30.5048L13.1644 30.5329L13.1785 30.5512L13.3247 30.6552L13.3458 30.6608L13.3626 30.6552L13.5088 30.5512L13.5257 30.5287L13.5313 30.5048L13.5074 29.9046C13.5037 29.8896 13.4957 29.8812 13.4835 29.8793ZM13.856 29.7205L13.8377 29.7233L13.5777 29.854L13.5636 29.8681L13.5594 29.8835L13.5847 30.4879L13.5917 30.5048L13.603 30.5146L13.8855 30.6453C13.9033 30.65 13.9169 30.6463 13.9263 30.6341L13.9319 30.6144L13.8841 29.7514C13.8794 29.7345 13.87 29.7242 13.856 29.7205ZM12.851 29.7233C12.8448 29.7195 12.8374 29.7183 12.8303 29.7199C12.8233 29.7214 12.8171 29.7257 12.8131 29.7317L12.8046 29.7514L12.7568 30.6144C12.7578 30.6313 12.7657 30.6425 12.7807 30.6481L12.8018 30.6453L13.0843 30.5146L13.0984 30.5034L13.104 30.4879L13.1279 29.8835L13.1237 29.8666L13.1096 29.8526L12.851 29.7233Z" fill="#A31643"/>
<path fill-rule="evenodd" clip-rule="evenodd" d="M4.21667 8.43333C4.21667 6.19667 5.10518 4.05162 6.68673 2.47007C8.26829 0.888509 10.4133 0 12.65 0C14.8867 0 17.0317 0.888509 18.6133 2.47007C20.1948 4.05162 21.0833 6.19667 21.0833 8.43333H22.4889C23.2344 8.43333 23.9495 8.7295 24.4766 9.25669C25.0038 9.78387 25.3 10.4989 25.3 11.2444V25.3C25.3 26.0456 25.0038 26.7606 24.4766 27.2878C23.9495 27.8149 23.2344 28.1111 22.4889 28.1111H2.81111C2.06556 28.1111 1.35054 27.8149 0.823355 27.2878C0.29617 26.7606 0 26.0456 0 25.3V11.2444C0 10.4989 0.29617 9.78387 0.823355 9.25669C1.35054 8.7295 2.06556 8.43333 2.81111 8.43333H4.21667ZM12.65 2.81111C14.1411 2.81111 15.5711 3.40345 16.6255 4.45782C17.6799 5.51219 18.2722 6.94223 18.2722 8.43333H7.02778C7.02778 6.94223 7.62012 5.51219 8.67449 4.45782C9.72886 3.40345 11.1589 2.81111 12.65 2.81111ZM15.4611 16.8667C15.4611 17.3601 15.3312 17.8449 15.0845 18.2722C14.8377 18.6995 14.4829 19.0544 14.0556 19.3011V21.0833C14.0556 21.4561 13.9075 21.8136 13.6439 22.0772C13.3803 22.3408 13.0228 22.4889 12.65 22.4889C12.2772 22.4889 11.9197 22.3408 11.6561 22.0772C11.3925 21.8136 11.2444 21.4561 11.2444 21.0833V19.3011C10.7086 18.9917 10.2898 18.5141 10.053 17.9424C9.81618 17.3707 9.77464 16.7368 9.9348 16.1391C10.095 15.5414 10.4479 15.0132 10.9388 14.6365C11.4297 14.2598 12.0312 14.0556 12.65 14.0556C13.3956 14.0556 14.1106 14.3517 14.6378 14.8789C15.1649 15.4061 15.4611 16.1211 15.4611 16.8667Z" fill="#A31643"/>
</svg>
