<svg width="22" height="22" viewBox="0 0 22 22" fill="none" xmlns="http://www.w3.org/2000/svg">
<path d="M1.8335 8.25001C1.8335 6.52118 1.8335 5.65768 2.37066 5.12051C2.90783 4.58334 3.77133 4.58334 5.50016 4.58334H16.5002C18.229 4.58334 19.0925 4.58334 19.6297 5.12051C20.1668 5.65768 20.1668 6.52118 20.1668 8.25001C20.1668 8.68176 20.1668 8.89809 20.033 9.03284C19.8982 9.16668 19.681 9.16668 19.2502 9.16668H2.75016C2.31841 9.16668 2.10208 9.16668 1.96733 9.03284C1.8335 8.89809 1.8335 8.68084 1.8335 8.25001Z" fill="#FF61A2"/>
<path fill-rule="evenodd" clip-rule="evenodd" d="M2.37066 19.6295C1.8335 19.0923 1.8335 18.2288 1.8335 16.5V11.9167C1.8335 11.4849 1.8335 11.2686 1.96733 11.1338C2.10208 11 2.31933 11 2.75016 11H19.2502C19.6819 11 19.8982 11 20.033 11.1338C20.1668 11.2686 20.1668 11.4849 20.1668 11.9167V16.5C20.1668 18.2288 20.1668 19.0923 19.6297 19.6295C19.0925 20.1667 18.229 20.1667 16.5002 20.1667H5.50016C3.77133 20.1667 2.90783 20.1667 2.37066 19.6295ZM7.3335 14.6667C7.09038 14.6667 6.85722 14.7632 6.68531 14.9352C6.51341 15.1071 6.41683 15.3402 6.41683 15.5833C6.41683 15.8264 6.51341 16.0596 6.68531 16.2315C6.85722 16.4034 7.09038 16.5 7.3335 16.5H14.6668C14.9099 16.5 15.1431 16.4034 15.315 16.2315C15.4869 16.0596 15.5835 15.8264 15.5835 15.5833C15.5835 15.3402 15.4869 15.1071 15.315 14.9352C15.1431 14.7632 14.9099 14.6667 14.6668 14.6667H7.3335Z" fill="#FF61A2"/>
<path d="M6.41699 2.75V5.5M15.5837 2.75V5.5" stroke="#FF61A2" stroke-width="2" stroke-linecap="round"/>
</svg>
