<svg width="41" height="43" viewBox="0 0 41 43" fill="none" xmlns="http://www.w3.org/2000/svg">
<path fill-rule="evenodd" clip-rule="evenodd" d="M20.7666 0.12854C15.4921 0.12854 10.6869 1.87077 7.84353 3.29421C7.58663 3.42266 7.34686 3.548 7.12422 3.67022C6.68282 3.91077 6.30682 4.13497 6.00788 4.33231L9.24245 9.09425L10.7652 9.70029C16.7158 12.7025 24.696 12.7025 30.6478 9.70029L32.376 8.80349L35.4343 4.33231C34.8001 3.92023 34.1414 3.54705 33.462 3.21481C30.6326 1.80654 25.9419 0.12854 20.7678 0.12854M13.2454 5.51871C12.1002 5.3032 10.969 5.01933 9.85784 4.66861C12.5214 3.48572 16.4905 2.23043 20.7678 2.23043C23.7303 2.23043 26.5316 2.83297 28.8484 3.59665C26.1334 3.97849 23.2363 4.62657 20.4759 5.42412C18.3039 6.05235 15.7653 5.98463 13.2454 5.51871ZM31.8821 11.432L31.5948 11.5768C25.0486 14.8791 16.3655 14.8791 9.8193 11.5768L9.54723 11.439C-0.288429 22.2299 -7.79683 42.1627 20.7666 42.1627C49.3301 42.1627 41.6395 21.8597 31.8821 11.432ZM19.5534 21.1474C18.934 21.1474 18.3399 21.3934 17.902 21.8314C17.464 22.2694 17.2179 22.8634 17.2179 23.4828C17.2179 24.1022 17.464 24.6962 17.902 25.1342C18.3399 25.5722 18.934 25.8182 19.5534 25.8182V21.1474ZM21.8888 18.812V17.6442H19.5534V18.812C18.3146 18.812 17.1265 19.3041 16.2506 20.18C15.3746 21.056 14.8825 22.244 14.8825 23.4828C14.8825 24.7216 15.3746 25.9097 16.2506 26.7856C17.1265 27.6616 18.3146 28.1537 19.5534 28.1537V32.8245C18.5375 32.8245 17.6722 32.1764 17.3499 31.268C17.3021 31.1193 17.2249 30.9818 17.123 30.8635C17.0211 30.7452 16.8966 30.6485 16.7566 30.5792C16.6167 30.5099 16.4644 30.4694 16.3085 30.46C16.1526 30.4506 15.9965 30.4726 15.8493 30.5246C15.7021 30.5766 15.5668 30.6576 15.4514 30.7628C15.3361 30.868 15.243 30.9953 15.1776 31.1371C15.1123 31.2789 15.0761 31.4324 15.0712 31.5885C15.0662 31.7445 15.0926 31.9 15.1488 32.0457C15.4707 32.9565 16.0672 33.7452 16.856 34.3029C17.6449 34.8607 18.5873 35.1601 19.5534 35.16V36.3277H21.8888V35.16C23.1276 35.16 24.3156 34.6679 25.1916 33.7919C26.0675 32.9159 26.5596 31.7279 26.5596 30.4891C26.5596 29.2503 26.0675 28.0623 25.1916 27.1863C24.3156 26.3104 23.1276 25.8182 21.8888 25.8182V21.1474C22.9047 21.1474 23.77 21.7955 24.0923 22.704C24.1401 22.8526 24.2172 22.9901 24.3191 23.1084C24.421 23.2267 24.5456 23.3234 24.6855 23.3927C24.8254 23.462 24.9778 23.5026 25.1337 23.5119C25.2895 23.5213 25.4457 23.4994 25.5929 23.4474C25.7401 23.3953 25.8754 23.3143 25.9907 23.2091C26.1061 23.1039 26.1992 22.9766 26.2645 22.8348C26.3298 22.693 26.366 22.5395 26.371 22.3835C26.376 22.2274 26.3496 22.0719 26.2934 21.9263C25.9715 21.0154 25.375 20.2267 24.5861 19.669C23.7973 19.1112 22.8549 18.8118 21.8888 18.812ZM21.8888 28.1537V32.8245C22.5082 32.8245 23.1022 32.5785 23.5402 32.1405C23.9782 31.7025 24.2242 31.1085 24.2242 30.4891C24.2242 29.8697 23.9782 29.2757 23.5402 28.8377C23.1022 28.3997 22.5082 28.1537 21.8888 28.1537Z" fill="#94143D"/>
</svg>
