<svg width="46" height="41" viewBox="0 0 46 41" fill="none" xmlns="http://www.w3.org/2000/svg">
<path d="M43.6319 1.08512C43.1919 0.103039 41.9348 0.0637555 41.4084 0.99084C38.9729 5.22557 34.6124 7.86541 29.6313 7.86541H23.346C15.0179 7.86541 8.26123 14.6221 8.26123 22.9502C8.26123 23.5001 8.32408 24.0265 8.37908 24.5608C13.3916 20.9703 20.6276 17.9219 30.8884 17.9219C31.5798 17.9219 32.1454 18.4876 32.1454 19.179C32.1454 19.8704 31.5798 20.4361 30.8884 20.4361C11.1368 20.4361 2.76157 32.5431 0.907405 37.0922C0.388867 38.3728 1.00169 39.8341 2.28232 40.3605C3.57081 40.8948 5.03215 40.2741 5.5664 39.0013C5.68425 38.7185 7.20844 35.238 11.2153 31.8832C13.7609 35.3323 18.6006 38.6242 24.9566 37.9485C37.2915 37.0529 45.9731 25.9907 45.9731 12.4458C45.9731 8.5018 45.1246 4.41634 43.6319 1.08512Z" fill="#94143D"/>
</svg>
