<svg width="18" height="16" viewBox="0 0 18 16" fill="none" xmlns="http://www.w3.org/2000/svg">
<path d="M1.6875 4.0625C2.13505 4.0625 2.56428 3.88471 2.88074 3.56824C3.19721 3.25178 3.375 2.82255 3.375 2.375C3.375 1.92745 3.19721 1.49822 2.88074 1.18176C2.56428 0.86529 2.13505 0.6875 1.6875 0.6875C1.23995 0.6875 0.810725 0.86529 0.494257 1.18176C0.17779 1.49822 0 1.92745 0 2.375C0 2.82255 0.17779 3.25178 0.494257 3.56824C0.810725 3.88471 1.23995 4.0625 1.6875 4.0625ZM6.1875 1.25C5.56523 1.25 5.0625 1.75273 5.0625 2.375C5.0625 2.99727 5.56523 3.5 6.1875 3.5H16.3125C16.9348 3.5 17.4375 2.99727 17.4375 2.375C17.4375 1.75273 16.9348 1.25 16.3125 1.25H6.1875ZM6.1875 6.875C5.56523 6.875 5.0625 7.37773 5.0625 8C5.0625 8.62227 5.56523 9.125 6.1875 9.125H16.3125C16.9348 9.125 17.4375 8.62227 17.4375 8C17.4375 7.37773 16.9348 6.875 16.3125 6.875H6.1875ZM6.1875 12.5C5.56523 12.5 5.0625 13.0027 5.0625 13.625C5.0625 14.2473 5.56523 14.75 6.1875 14.75H16.3125C16.9348 14.75 17.4375 14.2473 17.4375 13.625C17.4375 13.0027 16.9348 12.5 16.3125 12.5H6.1875ZM1.6875 15.3125C2.13505 15.3125 2.56428 15.1347 2.88074 14.8182C3.19721 14.5018 3.375 14.0726 3.375 13.625C3.375 13.1774 3.19721 12.7482 2.88074 12.4318C2.56428 12.1153 2.13505 11.9375 1.6875 11.9375C1.23995 11.9375 0.810725 12.1153 0.494257 12.4318C0.17779 12.7482 0 13.1774 0 13.625C0 14.0726 0.17779 14.5018 0.494257 14.8182C0.810725 15.1347 1.23995 15.3125 1.6875 15.3125ZM3.375 8C3.375 7.77839 3.33135 7.55896 3.24655 7.35422C3.16174 7.14948 3.03744 6.96346 2.88074 6.80676C2.72404 6.65006 2.53802 6.52576 2.33328 6.44095C2.12854 6.35615 1.90911 6.3125 1.6875 6.3125C1.46589 6.3125 1.24646 6.35615 1.04172 6.44095C0.836985 6.52576 0.650956 6.65006 0.494257 6.80676C0.337558 6.96346 0.213258 7.14948 0.128453 7.35422C0.0436485 7.55896 -3.30218e-09 7.77839 0 8C-3.30218e-09 8.22161 0.0436485 8.44104 0.128453 8.64578C0.213258 8.85052 0.337558 9.03654 0.494257 9.19324C0.650956 9.34994 0.836985 9.47424 1.04172 9.55905C1.24646 9.64385 1.46589 9.6875 1.6875 9.6875C1.90911 9.6875 2.12854 9.64385 2.33328 9.55905C2.53802 9.47424 2.72404 9.34994 2.88074 9.19324C3.03744 9.03654 3.16174 8.85052 3.24655 8.64578C3.33135 8.44104 3.375 8.22161 3.375 8Z" fill="#FF61A2"/>
</svg>
