<svg width="34" height="43" viewBox="0 0 34 43" fill="none" xmlns="http://www.w3.org/2000/svg">
<path d="M29.3937 4.99389C30.6237 5.4273 31.6889 6.23173 32.4423 7.29622C33.1957 8.3607 33.6002 9.63276 33.6 10.9369V36.1369C33.6 37.8078 32.9363 39.4102 31.7548 40.5917C30.5733 41.7731 28.9709 42.4369 27.3 42.4369H6.3C4.62914 42.4369 3.02671 41.7731 1.84523 40.5917C0.663748 39.4102 9.25157e-08 37.8078 9.25157e-08 36.1369L9.25157e-08 10.9369C-0.000223344 9.63276 0.404276 8.3607 1.15769 7.29622C1.9111 6.23173 2.97629 5.4273 4.2063 4.99389C4.29836 7.15817 5.22298 9.2032 6.78707 10.7019C8.35115 12.2007 10.4338 13.0372 12.6 13.0369H21C23.0814 13.0371 25.0888 12.2645 26.633 10.8689C28.1772 9.47326 29.1483 7.55402 29.358 5.48319L29.3937 4.99389ZM21.6153 19.9522L14.7 26.8654L11.9847 24.1522C11.791 23.9516 11.5593 23.7916 11.303 23.6816C11.0468 23.5715 10.7713 23.5136 10.4924 23.5112C10.2136 23.5087 9.93708 23.5619 9.679 23.6675C9.42091 23.7731 9.18645 23.929 8.98927 24.1262C8.7921 24.3233 8.63616 24.5578 8.53057 24.8159C8.42498 25.074 8.37185 25.3505 8.37427 25.6293C8.3767 25.9082 8.43463 26.1837 8.54469 26.4399C8.65475 26.6961 8.81473 26.9279 9.0153 27.1216L13.2153 31.3216C13.6091 31.7153 14.1432 31.9364 14.7 31.9364C15.2568 31.9364 15.7909 31.7153 16.1847 31.3216L24.5847 22.9216C24.9672 22.5255 25.1789 21.9951 25.1741 21.4444C25.1693 20.8938 24.9485 20.3671 24.5591 19.9778C24.1698 19.5884 23.6431 19.3676 23.0924 19.3628C22.5418 19.358 22.0114 19.5697 21.6153 19.9522ZM21 0.43689C22.1139 0.43689 23.1822 0.879388 23.9698 1.66704C24.7575 2.45469 25.2 3.52298 25.2 4.63689C25.2 5.7508 24.7575 6.81909 23.9698 7.60674C23.1822 8.39439 22.1139 8.83689 21 8.83689H12.6C11.4861 8.83689 10.4178 8.39439 9.63015 7.60674C8.8425 6.81909 8.4 5.7508 8.4 4.63689C8.4 3.52298 8.8425 2.45469 9.63015 1.66704C10.4178 0.879388 11.4861 0.43689 12.6 0.43689H21Z" fill="#94143D"/>
</svg>
