<svg width="21" height="22" viewBox="0 0 21 22" fill="none" xmlns="http://www.w3.org/2000/svg">
<path d="M5.6 4.66507C6.90403 3.38713 8.6597 2.67544 10.4855 2.68466C12.3113 2.69388 14.0597 3.42327 15.3507 4.71432C16.6418 6.00537 17.3712 7.75377 17.3804 9.57957C17.3896 11.4054 16.6779 13.161 15.4 14.4651L11.7372 18.1278C11.4091 18.4559 10.964 18.6402 10.5 18.6402C10.036 18.6402 9.59092 18.4559 9.26275 18.1278L5.6 14.4651C4.30053 13.1655 3.5705 11.4029 3.5705 9.56507C3.5705 7.72724 4.30053 5.96468 5.6 4.66507Z" stroke="white" stroke-width="1.5" stroke-linejoin="round"/>
<path d="M10.5 12.1899C11.9497 12.1899 13.125 11.0147 13.125 9.56494C13.125 8.11519 11.9497 6.93994 10.5 6.93994C9.05025 6.93994 7.875 8.11519 7.875 9.56494C7.875 11.0147 9.05025 12.1899 10.5 12.1899Z" stroke="white" stroke-width="1.5" stroke-linecap="round" stroke-linejoin="round"/>
</svg>
