<svg width="183" height="87" viewBox="0 0 183 87" fill="none" xmlns="http://www.w3.org/2000/svg">
<path d="M17.1323 59.7738V24.7272L43.1873 43.9364L68.8336 24.7272V59.7738H17.1323Z" fill="#FF61A2"/>
<path d="M33.6857 5.41541L18.8701 20.3332L43.0859 37.8054L67.0974 20.3332L52.5883 5.41541C52.5883 5.41541 47.3571 -0.0198638 43.0859 5.46123e-05C38.8494 0.0198116 33.6857 5.41541 33.6857 5.41541Z" fill="#FF61A2"/>
<path d="M12.2279 27.384C12.2279 27.384 12.5344 61 12.2279 59.5696C11.9214 58.1391 -1.6681 49.2497 0.171081 41.7909C2.01027 34.332 12.2279 27.384 12.2279 27.384Z" fill="#A31643"/>
<path d="M73.7721 27.5874C73.7721 27.5874 73.4656 61.2035 73.7721 59.773C74.0786 58.3425 87.6681 49.4532 85.8289 41.9943C83.9897 34.5354 73.7721 27.5874 73.7721 27.5874Z" fill="#A31643"/>
<path d="M68.6293 64.7794H17.541L31.6414 79.2884C31.6414 79.2884 38.1975 86.661 43.596 86.543C49.4299 86.4154 57.0833 76.3253 57.0833 76.3253L68.6293 64.7794Z" fill="#A31643"/>
<path d="M116.09 33.8182V52.7722H111.473V44.9692H104.291V52.7722H99.674V33.8182H104.291V41.2432H111.473V33.8182H116.09ZM131.222 49.4242H124.148L123.014 52.7722H118.181L125.039 33.8182H130.385L137.243 52.7722H132.356L131.222 49.4242ZM130.034 45.8602L127.685 38.9212L125.363 45.8602H130.034ZM146.431 33.8182C148.429 33.8182 150.175 34.2142 151.669 35.0062C153.163 35.7982 154.315 36.9142 155.125 38.3542C155.953 39.7762 156.367 41.4232 156.367 43.2952C156.367 45.1492 155.953 46.7962 155.125 48.2362C154.315 49.6762 153.154 50.7922 151.642 51.5842C150.148 52.3762 148.411 52.7722 146.431 52.7722H139.33V33.8182H146.431ZM146.134 48.7762C147.88 48.7762 149.239 48.2992 150.211 47.3452C151.183 46.3912 151.669 45.0412 151.669 43.2952C151.669 41.5492 151.183 40.1902 150.211 39.2182C149.239 38.2462 147.88 37.7602 146.134 37.7602H143.947V48.7762H146.134ZM163.564 33.8182V52.7722H158.947V33.8182H163.564ZM176.576 52.7722L172.634 45.6172H171.527V52.7722H166.91V33.8182H174.659C176.153 33.8182 177.422 34.0792 178.466 34.6012C179.528 35.1232 180.32 35.8432 180.842 36.7612C181.364 37.6612 181.625 38.6692 181.625 39.7852C181.625 41.0452 181.265 42.1702 180.545 43.1602C179.843 44.1502 178.799 44.8522 177.413 45.2662L181.787 52.7722H176.576ZM171.527 42.3502H174.389C175.235 42.3502 175.865 42.1432 176.279 41.7292C176.711 41.3152 176.927 40.7302 176.927 39.9742C176.927 39.2542 176.711 38.6872 176.279 38.2732C175.865 37.8592 175.235 37.6522 174.389 37.6522H171.527V42.3502Z" fill="#EA5683"/>
</svg>
