<svg width="183" height="87" viewBox="0 0 183 87" fill="none" xmlns="http://www.w3.org/2000/svg">
<path d="M17.1323 59.7736V24.7271L43.1873 43.9362L68.8336 24.7271V59.7736H17.1323Z" fill="white"/>
<path d="M33.6857 5.41541L18.8701 20.3332L43.0859 37.8054L67.0974 20.3332L52.5883 5.41541C52.5883 5.41541 47.3571 -0.0198638 43.0859 5.46123e-05C38.8494 0.0198116 33.6857 5.41541 33.6857 5.41541Z" fill="white"/>
<path d="M12.2279 27.3838C12.2279 27.3838 12.5344 60.9998 12.2279 59.5694C11.9214 58.1389 -1.6681 49.2495 0.171081 41.7907C2.01027 34.3318 12.2279 27.3838 12.2279 27.3838Z" fill="white"/>
<path d="M73.7721 27.5874C73.7721 27.5874 73.4656 61.2035 73.7721 59.773C74.0786 58.3425 87.6681 49.4532 85.8289 41.9943C83.9897 34.5354 73.7721 27.5874 73.7721 27.5874Z" fill="white"/>
<path d="M68.6293 64.7793H17.541L31.6414 79.2884C31.6414 79.2884 38.1975 86.6609 43.596 86.5429C49.4299 86.4153 57.0833 76.3252 57.0833 76.3252L68.6293 64.7793Z" fill="white"/>
<path d="M116.09 33.818V52.772H111.473V44.969H104.291V52.772H99.674V33.818H104.291V41.243H111.473V33.818H116.09ZM131.222 49.424H124.148L123.014 52.772H118.181L125.039 33.818H130.385L137.243 52.772H132.356L131.222 49.424ZM130.034 45.86L127.685 38.921L125.363 45.86H130.034ZM146.431 33.818C148.429 33.818 150.175 34.214 151.669 35.006C153.163 35.798 154.315 36.914 155.125 38.354C155.953 39.776 156.367 41.423 156.367 43.295C156.367 45.149 155.953 46.796 155.125 48.236C154.315 49.676 153.154 50.792 151.642 51.584C150.148 52.376 148.411 52.772 146.431 52.772H139.33V33.818H146.431ZM146.134 48.776C147.88 48.776 149.239 48.299 150.211 47.345C151.183 46.391 151.669 45.041 151.669 43.295C151.669 41.549 151.183 40.19 150.211 39.218C149.239 38.246 147.88 37.76 146.134 37.76H143.947V48.776H146.134ZM163.564 33.818V52.772H158.947V33.818H163.564ZM176.576 52.772L172.634 45.617H171.527V52.772H166.91V33.818H174.659C176.153 33.818 177.422 34.079 178.466 34.601C179.528 35.123 180.32 35.843 180.842 36.761C181.364 37.661 181.625 38.669 181.625 39.785C181.625 41.045 181.265 42.17 180.545 43.16C179.843 44.15 178.799 44.852 177.413 45.266L181.787 52.772H176.576ZM171.527 42.35H174.389C175.235 42.35 175.865 42.143 176.279 41.729C176.711 41.315 176.927 40.73 176.927 39.974C176.927 39.254 176.711 38.687 176.279 38.273C175.865 37.859 175.235 37.652 174.389 37.652H171.527V42.35Z" fill="white"/>
</svg>
