<svg width="40" height="41" viewBox="0 0 40 41" fill="none" xmlns="http://www.w3.org/2000/svg">
<path d="M18.3333 31.9578H8.33333C7.44928 31.9578 6.60143 31.6067 5.97631 30.9815C5.35119 30.3564 5 29.5086 5 28.6245V11.9578C5 11.0738 5.35119 10.2259 5.97631 9.60082C6.60143 8.9757 7.44928 8.62451 8.33333 8.62451H31.6667C32.5507 8.62451 33.3986 8.9757 34.0237 9.60082C34.6488 10.2259 35 11.0738 35 11.9578V19.4578M33.6667 33.9578L36.6667 36.9578M25 30.2912C25 31.6173 25.5268 32.889 26.4645 33.8267C27.4021 34.7644 28.6739 35.2912 30 35.2912C31.3261 35.2912 32.5979 34.7644 33.5355 33.8267C34.4732 32.889 35 31.6173 35 30.2912C35 28.9651 34.4732 27.6933 33.5355 26.7556C32.5979 25.818 31.3261 25.2912 30 25.2912C28.6739 25.2912 27.4021 25.818 26.4645 26.7556C25.5268 27.6933 25 28.9651 25 30.2912Z" stroke="white" stroke-width="3" stroke-linecap="round" stroke-linejoin="round"/>
<path d="M5 11.9578L20 21.9578L35 11.9578" stroke="white" stroke-width="3" stroke-linecap="round" stroke-linejoin="round"/>
</svg>
