<svg width="21" height="23" viewBox="0 0 21 23" fill="none" xmlns="http://www.w3.org/2000/svg">
<path d="M7 0.632812L13.074 4.17681L20 1.29081V9.79081H18V4.29081L14 5.95781V9.79081H12V5.86481L8 3.53181V15.7168L9.868 16.8068L8.86 18.5338L6.926 17.4048L0 20.2908V4.71681L7 0.632812ZM6 15.6238V3.53181L2 5.86481V17.2908L6 15.6238ZM16 12.7908C15.2707 12.7908 14.5712 13.0805 14.0555 13.5963C13.5397 14.112 13.25 14.8115 13.25 15.5408C13.25 16.7928 13.985 17.9948 14.865 18.9628C15.272 19.4108 15.682 19.7768 16 20.0378C16.318 19.7778 16.728 19.4108 17.135 18.9628C18.015 17.9948 18.75 16.7928 18.75 15.5408C18.75 14.8115 18.4603 14.112 17.9445 13.5963C17.4288 13.0805 16.7293 12.7908 16 12.7908ZM16 22.4918L15.445 22.1228L15.443 22.1218L15.439 22.1188L15.427 22.1108L15.387 22.0828L15.25 21.9858C14.5757 21.4882 13.9512 20.9266 13.385 20.3088C12.39 19.2148 11.25 17.5418 11.25 15.5408C11.25 14.917 11.3729 14.2994 11.6116 13.7231C11.8503 13.1468 12.2002 12.6231 12.6412 12.1821C13.0823 11.741 13.606 11.3911 14.1823 11.1524C14.7585 10.9137 15.3762 10.7908 16 10.7908C16.6238 10.7908 17.2415 10.9137 17.8177 11.1524C18.394 11.3911 18.9177 11.741 19.3588 12.1821C19.7998 12.6231 20.1497 13.1468 20.3884 13.7231C20.6271 14.2994 20.75 14.917 20.75 15.5408C20.75 17.5418 19.61 19.2148 18.615 20.3088C18.0104 20.9674 17.3396 21.5619 16.613 22.0828L16.573 22.1108L16.561 22.1188L16.557 22.1218H16.555L16 22.4918ZM14.75 14.7908H17.25V16.7908H14.75V14.7908Z" fill="#F72585"/>
</svg>
