<svg width="27" height="28" viewBox="0 0 27 28" fill="none" xmlns="http://www.w3.org/2000/svg">
<path fill-rule="evenodd" clip-rule="evenodd" d="M19.9162 0.759444C20.4026 0.273192 21.0622 3.05176e-05 21.75 3.05176e-05C22.4377 3.05176e-05 23.0974 0.273192 23.5838 0.759444L25.6406 2.81628C26.1269 3.30268 26.4 3.96229 26.4 4.65006C26.4 5.33783 26.1269 5.99744 25.6406 6.48384L23.5838 8.54068L17.8594 2.81628L19.9162 0.759444ZM16.0256 4.65006L9.54122 11.1344C9.05476 11.6207 8.7814 12.2804 8.78125 12.9682V15.025C8.78125 15.713 9.05452 16.3727 9.54094 16.8591C10.0274 17.3455 10.6871 17.6188 11.375 17.6188H13.4318C14.1197 17.6186 14.7793 17.3453 15.2656 16.8588L21.75 10.3745L16.0256 4.65006Z" fill="#94143D"/>
<path d="M4.89062 16.3221H3.59375C2.90584 16.3221 2.24611 16.5954 1.75969 17.0818C1.27327 17.5683 1 18.228 1 18.9159C1 19.6038 1.27327 20.2635 1.75969 20.7499C2.24611 21.2364 2.90584 21.5096 3.59375 21.5096H21.75C22.4379 21.5096 23.0976 21.7829 23.584 22.2693C24.0704 22.7557 24.3437 23.4155 24.3437 24.1034C24.3437 24.7913 24.0704 25.451 23.584 25.9374C23.0976 26.4239 22.4379 26.6971 21.75 26.6971H16.5625" stroke="#94143D" stroke-width="2" stroke-linecap="round" stroke-linejoin="round"/>
</svg>
