<svg width="20" height="21" viewBox="0 0 20 21" fill="none" xmlns="http://www.w3.org/2000/svg">
<path d="M13.8575 12.0757L14.2375 11.6982L13.355 10.8116L12.9767 11.1891L13.8575 12.0757ZM15.5117 11.5399L17.1042 12.4057L17.7 11.3074L16.1083 10.4424L15.5117 11.5399ZM17.41 14.1257L16.2267 15.3032L17.1075 16.1891L18.2908 15.0124L17.41 14.1257ZM15.505 15.6816C14.2967 15.7949 11.1717 15.6941 7.78667 12.3291L6.905 13.2149C10.5983 16.8874 14.1142 17.0674 15.6217 16.9266L15.505 15.6816ZM7.78667 12.3291C4.56084 9.12072 4.02584 6.42322 3.95917 5.25239L2.71084 5.32322C2.79417 6.79655 3.45667 9.78655 6.905 13.2149L7.78667 12.3291ZM8.9325 7.17905L9.17167 6.94072L8.29167 6.05489L8.0525 6.29239L8.9325 7.17905ZM9.36167 3.91155L8.31167 2.50822L7.31084 3.25822L8.36084 4.66072L9.36167 3.91155ZM4.7775 2.20239L3.46917 3.50239L4.35084 4.38905L5.65834 3.08905L4.7775 2.20239ZM8.4925 6.73572C8.05084 6.29239 8.05084 6.29239 8.05084 6.29405H8.04917L8.04667 6.29739C8.00707 6.33731 7.97161 6.38115 7.94084 6.42822C7.89584 6.49489 7.84667 6.58239 7.805 6.69322C7.70357 6.97932 7.67829 7.28689 7.73167 7.58572C7.84334 8.30655 8.34 9.25905 9.61167 10.5241L10.4933 9.63739C9.3025 8.45405 9.01917 7.73405 8.96667 7.39405C8.94167 7.23239 8.9675 7.15239 8.975 7.13405C8.98 7.12294 8.98 7.12127 8.975 7.12905C8.96757 7.14055 8.95921 7.15142 8.95 7.16155L8.94167 7.16989L8.93334 7.17739L8.4925 6.73572ZM9.61167 10.5241C10.8842 11.7891 11.8417 12.2824 12.5633 12.3924C12.9325 12.4491 13.23 12.4041 13.4558 12.3199C13.5823 12.2736 13.7005 12.2072 13.8058 12.1232L13.8475 12.0857L13.8533 12.0807L13.8558 12.0782L13.8567 12.0766C13.8567 12.0766 13.8575 12.0757 13.4167 11.6324C12.975 11.1891 12.9775 11.1882 12.9775 11.1882L12.9792 11.1866L12.9808 11.1849L12.9858 11.1807L12.9942 11.1724L13.0258 11.1474C13.0336 11.1424 13.0317 11.1429 13.02 11.1491C12.9992 11.1566 12.9175 11.1824 12.7533 11.1574C12.4083 11.1041 11.6833 10.8207 10.4933 9.63739L9.61167 10.5241ZM8.31167 2.50739C7.46167 1.37405 5.79167 1.19405 4.7775 2.20239L5.65834 3.08905C6.10167 2.64822 6.88834 2.69405 7.31084 3.25822L8.31167 2.50739ZM3.96 5.25322C3.94334 4.96489 4.07584 4.66322 4.35084 4.38989L3.46834 3.50322C3.02084 3.94822 2.66834 4.57822 2.71084 5.32322L3.96 5.25322ZM16.2267 15.3032C15.9983 15.5316 15.7517 15.6599 15.5058 15.6824L15.6217 16.9266C16.2342 16.8691 16.735 16.5607 17.1083 16.1899L16.2267 15.3032ZM9.17167 6.94072C9.9925 6.12489 10.0533 4.83572 9.3625 3.91239L8.36167 4.66155C8.6975 5.11072 8.6475 5.69989 8.29084 6.05572L9.17167 6.94072ZM17.105 12.4066C17.7858 12.7766 17.8917 13.6482 17.4108 14.1266L18.2925 15.0124C19.4092 13.9016 19.065 12.0491 17.7008 11.3082L17.105 12.4066ZM14.2375 11.6991C14.5575 11.3807 15.0725 11.3024 15.5125 11.5407L16.1092 10.4432C15.2058 9.95155 14.0858 10.0874 13.3558 10.8124L14.2375 11.6991Z" fill="white"/>
</svg>
