<svg width="27" height="28" viewBox="0 0 27 28" fill="none" xmlns="http://www.w3.org/2000/svg">
<path fill-rule="evenodd" clip-rule="evenodd" d="M12.75 20.7913C13.8991 20.7913 15.0369 20.5649 16.0985 20.1252C17.1601 19.6855 18.1247 19.041 18.9372 18.2284C19.7497 17.4159 20.3942 16.4513 20.8339 15.3897C21.2737 14.3281 21.5 13.1903 21.5 12.0413C21.5 10.8922 21.2737 9.75438 20.8339 8.69278C20.3942 7.63118 19.7497 6.66659 18.9372 5.85408C18.1247 5.04156 17.1601 4.39704 16.0985 3.95731C15.0369 3.51759 13.8991 3.29126 12.75 3.29126C10.4294 3.29126 8.20376 4.21313 6.56282 5.85408C4.92187 7.49502 4 9.72062 4 12.0413C4 14.3619 4.92187 16.5875 6.56282 18.2284C8.20376 19.8694 10.4294 20.7913 12.75 20.7913ZM12.75 5.79126C11.0924 5.79126 9.50269 6.44974 8.33058 7.62184C7.15848 8.79394 6.5 10.3837 6.5 12.0413C6.5 12.3728 6.6317 12.6907 6.86612 12.9251C7.10054 13.1596 7.41848 13.2913 7.75 13.2913C8.08152 13.2913 8.39946 13.1596 8.63388 12.9251C8.8683 12.6907 9 12.3728 9 12.0413C9 11.0467 9.39509 10.0929 10.0983 9.38961C10.8016 8.68635 11.7554 8.29126 12.75 8.29126C13.0815 8.29126 13.3995 8.15956 13.6339 7.92514C13.8683 7.69072 14 7.37278 14 7.04126C14 6.70974 13.8683 6.3918 13.6339 6.15738C13.3995 5.92296 13.0815 5.79126 12.75 5.79126Z" fill="white"/>
<path d="M24 23.2913L21.5 20.7913" stroke="white" stroke-width="2" stroke-linecap="round"/>
</svg>
