<svg width="26" height="26" viewBox="0 0 26 26" fill="none" xmlns="http://www.w3.org/2000/svg">
<path fill-rule="evenodd" clip-rule="evenodd" d="M10.1548 1.87604C10.3481 1.32654 10.7075 0.850763 11.1832 0.514629C11.6589 0.178494 12.2274 -0.0013522 12.8099 1.1091e-05H13.9552C14.5929 -0.00179261 15.2117 0.216454 15.7072 0.617919C16.2026 1.01938 16.5444 1.57948 16.6748 2.20369C16.8053 2.8279 16.7164 3.478 16.4231 4.04427C16.1299 4.61054 15.6503 5.05831 15.0652 5.31201L12.6128 6.38482C12.508 6.42958 12.4224 6.50992 12.3711 6.61165H15.5654C15.8736 6.61165 16.1692 6.73408 16.3871 6.95201C16.605 7.16994 16.7274 7.46551 16.7274 7.77371C16.7274 8.08191 16.605 8.37748 16.3871 8.59541C16.1692 8.81334 15.8736 8.93577 15.5654 8.93577H11.1589C11.0061 8.93601 10.8548 8.90614 10.7136 8.84785C10.5724 8.78956 10.4441 8.704 10.336 8.59607C10.2279 8.48814 10.1421 8.35995 10.0836 8.21884C10.0251 8.07773 9.99494 7.92647 9.99494 7.77371V6.83477C9.99494 5.71547 10.6569 4.70402 11.6813 4.25593L14.1356 3.18312C14.2321 3.14355 14.3118 3.07141 14.3606 2.97922C14.4095 2.88704 14.4245 2.78064 14.4031 2.67853C14.3816 2.57642 14.3251 2.48504 14.2433 2.4203C14.1615 2.35555 14.0595 2.32152 13.9552 2.32413H12.8099C12.7081 2.32298 12.6086 2.35399 12.5254 2.41275C12.4423 2.47151 12.3798 2.55502 12.3469 2.65136C12.296 2.7953 12.2173 2.9278 12.1152 3.04129C12.013 3.15479 11.8896 3.24706 11.7518 3.31284C11.4736 3.44569 11.1539 3.46257 10.8632 3.35975C10.7193 3.30884 10.5868 3.23008 10.4733 3.12797C10.3598 3.02585 10.2675 2.90238 10.2017 2.76461C10.0689 2.48636 10.052 2.16673 10.1548 1.87604ZM21.504 0.52805C21.7106 0.292649 21.9841 0.125797 22.2879 0.0497179C22.5918 -0.0263615 22.9116 -0.00805697 23.2048 0.102194C23.498 0.212444 23.7506 0.409407 23.9291 0.666848C24.1075 0.924288 24.2033 1.22999 24.2037 1.54322V4.96246C24.5 4.97925 24.7787 5.10879 24.9826 5.32453C25.1864 5.54027 25.3 5.82584 25.3 6.12266C25.3 6.41948 25.1864 6.70505 24.9826 6.92079C24.7787 7.13653 24.5 7.26607 24.2037 7.28286V7.77557C24.2037 8.08377 24.0812 8.37934 23.8633 8.59727C23.6454 8.8152 23.3498 8.93763 23.0416 8.93763C22.7334 8.93763 22.4378 8.8152 22.2199 8.59727C22.002 8.37934 21.8795 8.08377 21.8795 7.77557V7.28472H19.0348C18.7342 7.28524 18.4397 7.19897 18.1869 7.03625C17.934 6.87354 17.7336 6.6413 17.6095 6.36743C17.4854 6.09355 17.443 5.78968 17.4874 5.49231C17.5318 5.19494 17.6611 4.9167 17.8597 4.691L21.504 0.52805ZM20.7138 4.9606L21.8795 3.62749V4.9606H20.7138ZM16.2143 25.3124C15.0734 25.4346 13.925 25.1623 12.9605 24.5408C8.14632 21.2998 4.00457 17.158 0.763558 12.3439C0.154561 11.3699 -0.101978 10.2165 0.0367538 9.07615C0.175486 7.93584 0.701096 6.8776 1.52587 6.07804L2.2324 5.37151C2.54916 5.05813 2.97676 4.88236 3.42235 4.88236C3.86793 4.88236 4.29553 5.05813 4.61229 5.37151L7.4756 8.34637C7.78783 8.65998 7.96313 9.08449 7.96313 9.52702C7.96313 9.96956 7.78783 10.3941 7.4756 10.7077C7.16222 11.0244 6.98645 11.452 6.98645 11.8976C6.98645 12.3432 7.16222 12.7708 7.4756 13.0876L12.2168 17.8288C12.5336 18.1421 12.9612 18.3179 13.4067 18.3179C13.8523 18.3179 14.2799 18.1421 14.5967 17.8288C14.9103 17.5165 15.3348 17.3412 15.7773 17.3412C16.2199 17.3412 16.6444 17.5165 16.958 17.8288L19.9329 20.785C20.2462 21.1018 20.422 21.5294 20.422 21.975C20.422 22.4206 20.2462 22.8482 19.9329 23.1649L19.2263 23.8715C18.4161 24.6814 17.3533 25.1898 16.2143 25.3124Z" fill="#A31643"/>
</svg>
