<svg width="40" height="41" viewBox="0 0 40 41" fill="none" xmlns="http://www.w3.org/2000/svg">
<path d="M14.1969 8.74288C14.0455 8.42076 13.8055 8.1484 13.505 7.95762C13.2045 7.76684 12.8559 7.66553 12.5 7.66553C12.1441 7.66553 11.7955 7.76684 11.495 7.95762C11.1945 8.1484 10.9545 8.42076 10.8031 8.74288L0.803125 29.9929C0.602939 30.441 0.586464 30.9498 0.757237 31.41C0.92801 31.8701 1.27241 32.245 1.71649 32.454C2.16058 32.6631 2.66893 32.6897 3.13239 32.5281C3.59585 32.3665 3.97748 32.0296 4.19531 31.5898L6.63125 26.4163H18.3687L20.8031 31.5898C21.0149 32.0398 21.3967 32.3873 21.8647 32.5558C22.3327 32.7243 22.8484 32.7 23.2984 32.4882C23.7485 32.2764 24.096 31.8946 24.2645 31.4266C24.4329 30.9586 24.4086 30.4429 24.1969 29.9929L14.1969 8.74288ZM8.39687 22.6663L12.5 13.9444L16.6047 22.6663H8.39687ZM31.25 13.9163C29.0859 13.9163 27.3797 14.5194 26.1797 15.7101C25.991 15.8801 25.8388 16.0866 25.7323 16.3172C25.6259 16.5478 25.5674 16.7976 25.5604 17.0515C25.5534 17.3054 25.5981 17.5581 25.6917 17.7942C25.7853 18.0303 25.9259 18.2449 26.1049 18.425C26.284 18.6052 26.4978 18.747 26.7334 18.842C26.9689 18.937 27.2213 18.9832 27.4752 18.9777C27.7291 18.9722 27.9793 18.9152 28.2105 18.8101C28.4417 18.705 28.6492 18.554 28.8203 18.3663C29.2891 17.8976 30.1109 17.6601 31.25 17.6601C32.9687 17.6601 34.375 18.7819 34.375 20.1601V20.846C33.3954 20.3941 32.3288 20.1621 31.25 20.1663C27.4594 20.1663 24.375 22.9694 24.375 26.4163C24.375 29.8632 27.4594 32.6663 31.25 32.6663C32.4471 32.6692 33.6269 32.3807 34.6875 31.8257C34.9101 32.1612 35.2347 32.4162 35.6134 32.5529C35.9921 32.6896 36.4047 32.7007 36.7903 32.5847C37.1758 32.4687 37.5138 32.2317 37.7541 31.9087C37.9945 31.5857 38.1246 31.1939 38.125 30.7913V20.1663C38.125 16.7194 35.0406 13.9163 31.25 13.9163ZM31.25 28.9163C29.5312 28.9163 28.125 27.7944 28.125 26.4163C28.125 25.0382 29.5312 23.9163 31.25 23.9163C32.9687 23.9163 34.375 25.0382 34.375 26.4163C34.375 27.7944 32.9687 28.9163 31.25 28.9163Z" fill="white"/>
</svg>
