<svg width="34" height="37" viewBox="0 0 34 37" fill="none" xmlns="http://www.w3.org/2000/svg">
<path d="M6.99998 8.95784C6.99998 6.74771 7.87795 4.62809 9.44076 3.06529C11.0036 1.50249 13.1232 0.624512 15.3333 0.624512C17.5434 0.624512 19.6631 1.50249 21.2259 3.06529C22.7887 4.62809 23.6666 6.74771 23.6666 8.95784C23.6666 11.168 22.7887 13.2876 21.2259 14.8504C19.6631 16.4132 17.5434 17.2912 15.3333 17.2912C13.1232 17.2912 11.0036 16.4132 9.44076 14.8504C7.87795 13.2876 6.99998 11.168 6.99998 8.95784ZM5.03665 21.7445C7.70831 20.1145 11.3416 18.9578 15.3333 18.9578C16.0789 18.9578 16.81 18.9967 17.5266 19.0745C17.8129 19.1052 18.0864 19.2096 18.3203 19.3774C18.5543 19.5452 18.7408 19.7708 18.8616 20.0321C18.9825 20.2935 19.0336 20.5817 19.0099 20.8686C18.9863 21.1556 18.8887 21.4315 18.7266 21.6695C17.5978 23.3266 16.996 25.2861 17 27.2912C17 28.8245 17.345 30.2745 17.9583 31.5695C18.0778 31.8218 18.132 32.1001 18.116 32.3787C18.1 32.6574 18.0142 32.9276 17.8665 33.1646C17.7189 33.4015 17.5141 33.5975 17.2709 33.7346C17.0278 33.8718 16.7541 33.9457 16.475 33.9495L15.3333 33.9578C11.6183 33.9578 8.10831 33.7245 5.47831 33.0278C4.16998 32.6812 2.93831 32.1845 2.00498 31.4345C1.01665 30.6412 0.333313 29.5328 0.333313 28.1245C0.333313 26.8128 0.92998 25.5862 1.73998 24.5595C2.56331 23.5178 3.70165 22.5595 5.03665 21.7428V21.7445ZM27 20.6245C27.442 20.6245 27.8659 20.8001 28.1785 21.1127C28.4911 21.4252 28.6666 21.8491 28.6666 22.2912V25.6245H32C32.442 25.6245 32.8659 25.8001 33.1785 26.1127C33.4911 26.4252 33.6666 26.8491 33.6666 27.2912C33.6666 27.7332 33.4911 28.1571 33.1785 28.4697C32.8659 28.7823 32.442 28.9578 32 28.9578H28.6666V32.2912C28.6666 32.7332 28.4911 33.1571 28.1785 33.4697C27.8659 33.7822 27.442 33.9578 27 33.9578C26.558 33.9578 26.134 33.7822 25.8215 33.4697C25.5089 33.1571 25.3333 32.7332 25.3333 32.2912V28.9578H22C21.558 28.9578 21.134 28.7823 20.8215 28.4697C20.5089 28.1571 20.3333 27.7332 20.3333 27.2912C20.3333 26.8491 20.5089 26.4252 20.8215 26.1127C21.134 25.8001 21.558 25.6245 22 25.6245H25.3333V22.2912C25.3333 21.8491 25.5089 21.4252 25.8215 21.1127C26.134 20.8001 26.558 20.6245 27 20.6245Z" fill="white"/>
</svg>
