<svg width="40" height="41" viewBox="0 0 40 41" fill="none" xmlns="http://www.w3.org/2000/svg">
<path d="M31.6667 7.45801C32.5507 7.45801 33.3986 7.8092 34.0237 8.43432C34.6488 9.05944 35 9.90729 35 10.7913V12.458H25C22.7899 12.458 20.6702 13.336 19.1074 14.8988C17.5446 16.4616 16.6667 18.5812 16.6667 20.7913C16.6667 23.0015 17.5446 25.1211 19.1074 26.6839C20.6702 28.2467 22.7899 29.1247 25 29.1247H35V30.7913C35 31.6754 34.6488 32.5232 34.0237 33.1484C33.3986 33.7735 32.5507 34.1247 31.6667 34.1247H8.33333C7.44928 34.1247 6.60143 33.7735 5.97631 33.1484C5.35119 32.5232 5 31.6754 5 30.7913V10.7913C5 9.90729 5.35119 9.05944 5.97631 8.43432C6.60143 7.8092 7.44928 7.45801 8.33333 7.45801H31.6667ZM33.3333 15.7913C34.2174 15.7913 35.0652 16.1425 35.6904 16.7677C36.3155 17.3928 36.6667 18.2406 36.6667 19.1247V22.458C36.6667 23.3421 36.3155 24.1899 35.6904 24.815C35.0652 25.4402 34.2174 25.7913 33.3333 25.7913H25C23.6739 25.7913 22.4021 25.2646 21.4645 24.3269C20.5268 23.3892 20 22.1174 20 20.7913C20 19.4653 20.5268 18.1935 21.4645 17.2558C22.4021 16.3181 23.6739 15.7913 25 15.7913H33.3333ZM25 19.1247C24.558 19.1247 24.134 19.3003 23.8215 19.6128C23.5089 19.9254 23.3333 20.3493 23.3333 20.7913C23.3333 21.2334 23.5089 21.6573 23.8215 21.9699C24.134 22.2824 24.558 22.458 25 22.458C25.442 22.458 25.8659 22.2824 26.1785 21.9699C26.4911 21.6573 26.6667 21.2334 26.6667 20.7913C26.6667 20.3493 26.4911 19.9254 26.1785 19.6128C25.8659 19.3003 25.442 19.1247 25 19.1247Z" fill="white"/>
</svg>
