<svg width="40" height="41" viewBox="0 0 40 41" fill="none" xmlns="http://www.w3.org/2000/svg">
<path d="M7.5 8H37.5L33.75 24.25H11.25M33.75 29.25H12.5L6.25 3H2.5" stroke="black" stroke-width="2" stroke-linecap="round" stroke-linejoin="round"/>
<path d="M31.25 36.75C32.6307 36.75 33.75 35.6307 33.75 34.25C33.75 32.8693 32.6307 31.75 31.25 31.75C29.8693 31.75 28.75 32.8693 28.75 34.25C28.75 35.6307 29.8693 36.75 31.25 36.75Z" stroke="black" stroke-width="2" stroke-linecap="round" stroke-linejoin="round"/>
<path d="M15 36.75C16.3807 36.75 17.5 35.6307 17.5 34.25C17.5 32.8693 16.3807 31.75 15 31.75C13.6193 31.75 12.5 32.8693 12.5 34.25C12.5 35.6307 13.6193 36.75 15 36.75Z" stroke="black" stroke-width="2" stroke-linecap="round" stroke-linejoin="round"/>
</svg>
