<svg width="37" height="33" viewBox="0 0 37 33" fill="none" xmlns="http://www.w3.org/2000/svg">
<path d="M9.39334 27.1066C11.8474 29.5607 15.0766 31.0879 18.5305 31.4279C21.9844 31.7679 25.4493 30.8997 28.3349 28.9712C31.2204 27.0427 33.3479 24.1733 34.3548 20.852C35.3617 17.5307 35.1858 13.9629 33.857 10.7568C32.5281 7.55065 30.1286 4.9045 27.0674 3.26929C24.0061 1.63409 20.4726 1.11101 17.0689 1.7892C13.6652 2.46739 10.6019 4.30488 8.40122 6.98854C6.20051 9.6722 4.99849 13.0359 5 16.5066V19.8332" stroke="black" stroke-width="3" stroke-linecap="round" stroke-linejoin="round"/>
<path d="M1.6665 16.4999L4.99984 19.8333L8.33317 16.4999M18.3332 9.83325V18.1666H26.6665" stroke="black" stroke-width="3" stroke-linecap="round" stroke-linejoin="round"/>
</svg>
