<svg width="84" height="85" viewBox="0 0 84 85" fill="none" xmlns="http://www.w3.org/2000/svg">
<path d="M82.7624 66.7459H58.0576V64.0291L73.1667 60.5688C73.7365 60.4368 74.1325 59.9191 74.1152 59.3355V55.6285C74.1152 55.3019 73.9866 54.9857 73.7538 54.7564C73.5245 54.5237 73.2084 54.3951 72.8818 54.3951H60.9238C62.1606 49.368 60.837 42.9299 60.7745 42.6248V42.6213C60.6459 41.9856 60.0483 41.5617 59.4056 41.645C57.3106 41.9612 55.2435 42.4441 53.2284 43.0903C52.5127 40.6202 51.8318 38.817 51.797 38.7302C51.6615 38.3793 51.3767 38.1049 51.0188 37.9902C50.6575 37.879 50.2649 37.9381 49.9557 38.15C49.9557 38.15 49.2157 38.6573 48.1769 39.3868V31.9242C48.6946 31.754 49.1671 31.4622 49.5458 31.0731C50.9424 29.9231 50.6193 27.578 50.6437 25.9729L50.6471 25.9694C50.6471 25.2885 50.0947 24.7361 49.4103 24.7361C48.7294 24.7361 48.177 25.2885 48.177 25.9694C48.1041 26.9561 48.4376 28.86 47.7948 29.3289C47.5725 29.5652 47.2633 29.6937 46.9402 29.6868C46.2592 29.6868 45.7069 29.1344 45.7069 28.4534V23.5131C45.7103 22.5368 45.3247 21.6023 44.6299 20.9178C43.5772 19.8547 41.9825 19.5316 40.5963 20.0979C39.2101 20.6642 38.2999 22.0122 38.2929 23.513C38.22 24.4997 38.5535 26.4036 37.9108 26.8726C37.6815 27.0914 37.3757 27.2165 37.0596 27.2165H36.9484C36.2744 27.1123 35.7915 26.5147 35.8228 25.8338V18.5692C35.8228 17.8882 36.3752 17.3358 37.0596 17.3358H46.9399C47.27 17.3358 47.5826 17.4644 47.8154 17.6971C48.0447 17.9299 48.1767 18.2426 48.1767 18.5692V22.2762C48.1767 22.9571 48.7291 23.513 49.41 23.513C50.0945 23.513 50.6468 22.9571 50.6468 22.2762V18.5692C50.6468 16.5228 48.9862 14.8656 46.9398 14.8656H43.2363V12.2078C45.4563 11.5582 46.9711 9.50833 46.9398 7.19456C46.9398 4.63754 43.5559 1.09381 42.875 0.399016C42.6457 0.166242 42.3296 0.03422 41.9995 0.03422C41.6694 0.03422 41.3533 0.166242 41.124 0.399016C40.4431 1.09038 37.0592 4.63754 37.0592 7.19456C37.0279 9.50842 38.5427 11.5581 40.7627 12.2078V14.8656H37.0592C35.0129 14.8656 33.3522 16.5228 33.3522 18.5692V25.8477C33.3487 27.4458 34.3319 28.8807 35.8223 29.4539V39.4356C34.7835 38.6574 34.0921 38.1988 34.0574 38.1988C33.7412 37.9834 33.3452 37.9244 32.9804 38.039C32.6226 38.1537 32.3377 38.4281 32.2022 38.779C32.2022 38.8659 31.4865 40.6551 30.7708 43.1391C28.7558 42.486 26.6886 42.0031 24.5936 41.6938C23.9509 41.6105 23.3534 42.0378 23.2248 42.6701C23.1622 42.9793 21.8664 49.4136 23.0754 54.4404L11.1174 54.4439C10.4365 54.4439 9.88407 54.9963 9.88407 55.6772V59.3843C9.8667 59.9679 10.2628 60.4856 10.8325 60.6211L25.9416 64.0154V66.7461H1.2368C0.552379 66.7461 0 67.2985 0 67.9829V75.3933C0 75.7199 0.132022 76.0361 0.361318 76.2654C0.594092 76.4982 0.906769 76.6302 1.23682 76.6302H7.7579L9.94315 83.2034V83.1999C10.1134 83.7037 10.5859 84.0406 11.1174 84.0406H16.0578C16.3878 84.0406 16.7005 83.9086 16.9333 83.6793C17.1626 83.4466 17.2946 83.1339 17.2946 82.8038V76.6301H23.4717C24.1527 76.6301 24.7051 76.0743 24.7051 75.3933C24.7051 74.7124 24.1527 74.1565 23.4717 74.1565H2.47036V69.2162H81.5299V74.1565H27.1761C26.4951 74.1565 25.9428 74.7124 25.9428 75.3933C25.9428 76.0743 26.4951 76.6301 27.1761 76.6301H66.7054V82.8073V82.8038C66.7054 83.1339 66.8374 83.4465 67.0667 83.6793C67.2995 83.9086 67.6122 84.0406 67.9422 84.0406H72.8826C73.435 84.0684 73.9422 83.7245 74.1159 83.1999L76.2421 76.6302H82.7632C83.0932 76.6302 83.4059 76.4981 83.6387 76.2654C83.868 76.0361 84 75.7199 84 75.3933V67.9829C84 67.6528 83.868 67.3401 83.6387 67.1074C83.4059 66.8781 83.0925 66.7459 82.7624 66.7459ZM39.5296 7.19447C39.5296 6.2912 40.7664 4.47762 41.9998 3.09487C43.2366 4.47762 44.4699 6.29466 44.4699 7.19447C44.4699 8.55987 43.3651 9.6646 41.9998 9.6646C40.6344 9.6646 39.5296 8.55979 39.5296 7.19447ZM14.8248 76.6298V81.5702H12.0072L10.3638 76.6298H14.8248ZM58.3813 54.3949H50.6477C50.7728 52.0637 50.2969 49.7394 49.265 47.648C51.7351 45.9178 56.2829 44.6845 58.6037 44.2884C58.8851 46.4146 59.3923 51.0216 58.3813 54.3949ZM35.9 54.3949C35.3684 51.1708 37.6545 47.1303 39.607 43.9302C40.4964 42.5232 41.3719 41.262 42.0042 40.3969C42.633 41.262 43.4981 42.4953 44.3771 43.9058C46.2428 46.9458 48.6261 51.2295 48.0841 54.3563L35.9 54.3949ZM50.0299 41.1268C50.2904 41.8668 50.5996 42.8431 50.9054 43.9444H50.9089C49.9639 44.3613 49.0502 44.8477 48.1781 45.4001C47.8307 44.7574 47.4624 44.1633 47.0907 43.4963C47.9801 42.6833 49.2517 41.6932 50.0299 41.1268ZM40.7641 25.983V23.5129C40.7711 23.0161 41.0768 22.5714 41.5389 22.3838C42.0009 22.1962 42.529 22.3074 42.8764 22.6583C43.1092 22.8806 43.2412 23.1898 43.2378 23.5129V28.4533C43.2343 30.0236 44.2245 31.4237 45.7079 31.9483V41.384C41.7681 35.6272 42.2476 35.6515 38.2974 41.384L38.2939 29.4776C38.8046 29.2796 39.2737 28.9808 39.6663 28.6021C40.3646 27.9072 40.7607 26.9663 40.7641 25.983ZM33.9721 41.1268C34.7503 41.6966 36.0219 42.6833 36.9738 43.4997C36.5777 44.1529 36.2338 44.7365 35.8863 45.4036V45.4001C34.9934 44.8477 34.0589 44.3578 33.0931 43.9444C33.3536 42.8431 33.7254 41.8669 33.9721 41.1268ZM25.4498 44.278C28.7434 44.8095 31.9084 45.9491 34.7885 47.6375C33.7462 49.729 33.2738 52.0602 33.4162 54.3949H25.6201C24.6195 51.0214 25.1267 46.4146 25.4498 44.278ZM12.3552 56.8647H71.6461V58.3448L56.69 61.8051H27.3122L12.3561 58.3448L12.3552 56.8647ZM28.4133 66.7451V64.2749H55.5889V66.7451H28.4133ZM71.9939 81.5696H69.1762V76.6292H73.6371L71.9939 81.5696ZM58.0588 21.8927C59.9661 21.6182 61.8248 21.0762 63.5827 20.2876C66.2683 22.6813 69.8502 23.8139 73.4248 23.4039C76.9994 22.994 80.2308 21.0762 82.3084 18.137C82.496 17.866 82.569 17.529 82.5099 17.2059C82.4474 16.8793 82.2598 16.5944 81.9853 16.4068L80.1092 15.17C81.346 14.3779 85.3831 11.463 83.4444 9.95869L79.8243 7.48856L79.5638 1.96806C79.5464 1.57895 79.3483 1.22458 79.0287 1.00573C78.7056 0.786858 78.3026 0.731271 77.9343 0.856338L72.6118 2.66991L68.9813 0.199784C66.8828 -1.03701 65.6321 3.8199 65.2743 5.14013L63.346 3.90333V3.9068C62.7867 3.52812 62.0258 3.67403 61.6402 4.22644C58.6975 8.47536 58.7635 14.1174 61.8035 18.2967C60.5215 18.804 59.1943 19.1722 57.8359 19.3981C57.155 19.4502 56.6443 20.0477 56.6999 20.7322C56.7555 21.4131 57.3531 21.9203 58.034 21.8682L58.0588 21.8927ZM62.134 12.9987H62.1375C61.7171 10.8586 62.0436 8.63859 63.0616 6.71037L65.6569 8.44052C66.0286 8.70108 66.515 8.73235 66.9215 8.52737C67.328 8.31892 67.5851 7.90549 67.5955 7.4504C67.5781 5.9217 67.9464 4.4139 68.669 3.06593L71.7333 5.11573C72.0529 5.3346 72.4559 5.39019 72.8207 5.26512L77.1808 3.74692L77.3893 8.25643H77.3928C77.4136 8.64555 77.6186 9.00339 77.9486 9.21877L80.9746 11.2442C79.9671 12.3907 78.6956 13.2766 77.2676 13.8255C76.8334 13.9853 76.5241 14.3779 76.4686 14.8399C76.413 15.302 76.6214 15.7536 77.0071 16.0107L79.5641 17.7166C76.0517 21.5835 70.1765 22.1601 65.9767 19.0507C66.6924 18.6199 67.3838 18.1474 68.0508 17.6541C69.3849 18.4462 73.6478 19.0751 73.2899 16.5806C72.7966 15.0484 71.3026 16.0872 70.2153 15.8024C70.9587 15.0797 71.6501 14.3084 72.2893 13.492C73.5261 13.961 76.3159 13.8741 75.8469 11.9355C75.5377 10.9975 74.6101 11.0218 73.8075 11.2546C74.3391 10.129 75.9824 8.25286 74.3148 7.37734C72.7966 6.79714 72.4873 8.73571 71.8446 9.67376C71.869 9.32635 71.7508 8.9824 71.5181 8.71837C71.2888 8.4578 70.9587 8.29799 70.6113 8.28062C68.6588 8.46475 69.4613 11.0739 70.3021 12.0606C69.6281 12.9152 68.8846 13.7143 68.0786 14.4439C67.0538 13.3947 68.0786 11.3449 66.2616 11.1712C63.913 11.3553 65.2471 14.8782 66.1504 16.0142V16.0107C65.5007 16.4589 64.8302 16.8723 64.1388 17.2475C63.1348 16.0142 62.4539 14.5551 62.1481 12.9986L62.134 12.9987ZM1.07497 20.569C2.41947 20.7496 3.74316 21.0727 5.01821 21.5348C2.14153 25.7907 2.24924 31.3982 5.2892 35.5428C5.67483 36.1056 6.44266 36.2481 7.00547 35.8624L8.84679 34.5422C9.20463 35.8902 10.5873 40.7194 12.6406 39.3853L16.1496 36.9151L21.486 38.5341L21.4825 38.5306C21.8542 38.6453 22.2572 38.5758 22.5699 38.3465C22.8826 38.1172 23.0702 37.7559 23.0772 37.3702L23.164 31.874L26.6591 29.4039C28.5491 27.8335 24.4113 25.0819 23.2127 24.3141L25.0297 23.0043C25.2938 22.8097 25.4709 22.5214 25.5231 22.1948C25.5752 21.8717 25.4953 21.5382 25.3007 21.2741C23.171 18.4322 19.9295 16.6325 16.3925 16.3303C12.8522 16.0245 9.3537 17.244 6.77276 19.6794C5.07036 18.9776 3.28462 18.4982 1.46065 18.2619C0.776226 18.1715 0.150828 18.6545 0.0640223 19.3354C-0.026305 20.0163 0.456612 20.6417 1.13753 20.732L1.07497 20.569ZM9.47561 20.4335C13.5231 17.5464 19.0749 18.0745 22.5071 21.6703L20.0369 23.4352C19.6617 23.7062 19.4707 24.1683 19.5401 24.6268C19.6096 25.0854 19.9327 25.4641 20.3705 25.6101C21.8157 26.1138 23.1116 26.9615 24.1504 28.0802L21.2112 30.1786V30.1821C20.8951 30.4114 20.7075 30.7797 20.704 31.1688L20.631 35.6401L16.2813 34.3199C15.9165 34.2087 15.5205 34.2712 15.2078 34.4936L12.2548 36.6198V36.6163C11.4835 35.303 11.0596 33.8161 11.0214 32.2943C11.0214 31.9643 10.8894 31.6516 10.6601 31.4188C10.4273 31.1895 10.1112 31.0575 9.78461 31.0575C9.24263 30.922 7.07817 32.7981 6.57441 33.083C4.72962 29.7442 5.00409 25.6342 7.2762 22.5703C7.97104 22.9489 8.64161 23.3589 9.29122 23.8071C8.44004 24.957 7.20318 28.4764 9.56221 28.6258C11.341 28.4035 10.2918 26.3884 11.2541 25.3149C12.0949 25.9888 12.8766 26.7324 13.5888 27.5383C12.7862 28.5528 12.0566 31.1446 13.9953 31.2454L13.9987 31.2419C14.3496 31.228 14.6762 31.0717 14.909 30.8076C15.1417 30.5436 15.2599 30.1962 15.2321 29.8488C15.8505 30.7624 16.2465 32.6664 17.7022 32.0236C19.3316 31.1203 17.7022 29.3068 17.0977 28.195C17.8898 28.4035 18.8035 28.3791 19.0849 27.455C19.5053 25.5025 16.726 25.5025 15.5135 26.0097L15.5169 26.0063C14.8673 25.2107 14.162 24.4637 13.4046 23.7689C14.4781 23.4736 15.9755 24.4359 16.4202 22.9038C16.7051 20.4337 12.4804 21.1736 11.2089 21.9901H11.2054C10.5349 21.5072 9.84 21.0625 9.11736 20.656L9.47561 20.4335Z" fill="#763201"/>
</svg>
