<svg width="24" height="25" viewBox="0 0 24 25" fill="none" xmlns="http://www.w3.org/2000/svg">
<path d="M9 16.25C9 16.0511 9.07902 15.8603 9.21967 15.7197C9.36032 15.579 9.55109 15.5 9.75 15.5H14.25C14.4489 15.5 14.6397 15.579 14.7803 15.7197C14.921 15.8603 15 16.0511 15 16.25C15 16.4489 14.921 16.6397 14.7803 16.7803C14.6397 16.921 14.4489 17 14.25 17H9.75C9.55109 17 9.36032 16.921 9.21967 16.7803C9.07902 16.6397 9 16.4489 9 16.25ZM6 11.75C6 11.5511 6.07902 11.3603 6.21967 11.2197C6.36032 11.079 6.55109 11 6.75 11H17.25C17.4489 11 17.6397 11.079 17.7803 11.2197C17.921 11.3603 18 11.5511 18 11.75C18 11.9489 17.921 12.1397 17.7803 12.2803C17.6397 12.421 17.4489 12.5 17.25 12.5H6.75C6.55109 12.5 6.36032 12.421 6.21967 12.2803C6.07902 12.1397 6 11.9489 6 11.75ZM3 7.25C3 7.05109 3.07902 6.86032 3.21967 6.71967C3.36032 6.57902 3.55109 6.5 3.75 6.5H20.25C20.4489 6.5 20.6397 6.57902 20.7803 6.71967C20.921 6.86032 21 7.05109 21 7.25C21 7.44891 20.921 7.63968 20.7803 7.78033C20.6397 7.92098 20.4489 8 20.25 8H3.75C3.55109 8 3.36032 7.92098 3.21967 7.78033C3.07902 7.63968 3 7.44891 3 7.25Z" fill="black"/>
</svg>
