<svg width="26" height="26" viewBox="0 0 26 26" fill="none" xmlns="http://www.w3.org/2000/svg">
<path d="M4.5 13H2L13.25 1.75L24.5 13H22M4.5 13V21.75C4.5 22.413 4.76339 23.0489 5.23223 23.5178C5.70107 23.9866 6.33696 24.25 7 24.25H19.5C20.163 24.25 20.7989 23.9866 21.2678 23.5178C21.7366 23.0489 22 22.413 22 21.75V13" stroke="black" stroke-width="2.5" stroke-linecap="round" stroke-linejoin="round"/>
<path d="M9.5 24.25V16.75C9.5 16.087 9.76339 15.4511 10.2322 14.9822C10.7011 14.5134 11.337 14.25 12 14.25H14.5C15.163 14.25 15.7989 14.5134 16.2678 14.9822C16.7366 15.4511 17 16.087 17 16.75V24.25" stroke="black" stroke-width="2.5" stroke-linecap="round" stroke-linejoin="round"/>
</svg>
