<svg width="73" height="82" viewBox="0 0 73 82" fill="none" xmlns="http://www.w3.org/2000/svg">
<path d="M1.7497 44.4865C1.66075 44.8732 1.73036 45.2677 1.93921 45.6041L6.80832 53.4163C7.08678 53.8727 7.57021 54.1202 8.06521 54.1202C8.33206 54.1202 8.61051 54.0506 8.84642 53.892L9.00499 53.7915V78.2063C9.00499 80.3334 10.9658 81.9964 13.4718 81.9964H45.5795C48.0431 81.9964 50.0541 80.2947 50.0541 78.2063V53.4974C50.0541 52.6775 49.3889 52.0123 48.569 52.0123H11.8675L45.7077 30.9151C46.0442 30.7063 46.2801 30.3698 46.3729 29.9947C46.4618 29.608 46.3922 29.2135 46.1834 28.877L41.3104 21.0764C40.8734 20.3842 39.9645 20.1637 39.2607 20.6007L35.4281 22.987C35.3971 22.898 35.3507 22.8091 35.3004 22.7201L29.9827 14.1963C29.7159 13.7593 29.2286 13.4924 28.7259 13.4924H28.7142C28.1999 13.4924 27.7242 13.7709 27.4574 14.204L20.0319 26.4402C19.2584 26.5291 18.4965 26.765 17.785 27.2137C17.0811 27.6507 16.5281 28.2346 16.1104 28.8883L1.85551 30.1645C1.34114 30.2148 0.884786 30.5203 0.656647 30.9844C0.428468 31.4485 0.447803 31.9938 0.72626 32.4308L6.04397 40.9546C6.09425 41.0436 6.16386 41.1132 6.23348 41.1828L2.40086 43.5806C2.076 43.7624 1.84008 44.0989 1.75113 44.4856L1.7497 44.4865ZM11.975 54.9831H47.0836V78.2109C47.0836 78.5357 46.4802 79.0308 45.5792 79.0308H13.4715C12.5588 79.0308 11.9748 78.5473 11.9748 78.2109L11.975 54.9831ZM28.7476 17.7945L32.7852 24.2686C32.8355 24.3575 32.9051 24.4387 32.9631 24.5045L25.4371 29.1957C25.3868 29.1067 25.3481 29.0178 25.2978 28.9366C24.7641 28.0741 24.01 27.4322 23.1591 26.9951L28.7476 17.7945ZM19.373 29.7138C20.5332 28.9906 22.0647 29.3464 22.7879 30.5066C22.8382 30.5956 22.8768 30.6845 22.9155 30.7735L18.7774 33.3569C18.7193 33.2796 18.6497 33.21 18.5878 33.121C17.8685 31.9723 18.2127 30.437 19.373 29.7138ZM4.54187 32.8928L15.2622 31.9337C15.2816 32.885 15.5291 33.8442 16.0628 34.7066C16.1131 34.7956 16.1827 34.8652 16.233 34.9541L8.70692 39.6453C8.67598 39.5564 8.62957 39.4674 8.57929 39.3785L4.54187 32.8928ZM39.5811 23.8933L42.8761 29.18L8.54082 50.5861L5.2458 45.2994L39.5811 23.8933Z" fill="#763201"/>
<path d="M25.441 27.992C25.7002 28.1699 25.9864 28.2511 26.2841 28.2511C26.7598 28.2511 27.2239 28.0229 27.5101 27.6091L30.3024 23.529C30.7665 22.856 30.5886 21.924 29.9157 21.46C29.2311 20.9959 28.3107 21.1738 27.8466 21.8467L25.0544 25.9268C24.5903 26.6075 24.7565 27.528 25.441 27.992Z" fill="#763201"/>
<path d="M9.00476 36.8016L13.897 36.09C14.7092 35.9701 15.2738 35.2198 15.1539 34.4077C15.034 33.5955 14.2838 33.0309 13.4716 33.1508L8.57933 33.8624C7.76718 33.9823 7.20256 34.7326 7.32245 35.5447C7.43075 36.2873 8.065 36.8132 8.78824 36.8132C8.85785 36.8132 8.93515 36.8132 9.00476 36.8016Z" fill="#763201"/>
<path d="M38.4783 51.1002C38.7374 51.2897 39.0429 51.3787 39.3407 51.3787C39.8048 51.3787 40.2612 51.1621 40.5474 50.756C41.6651 49.1936 44.1595 46.3395 48.379 44.9163C52.2503 43.6091 55.7038 44.1544 57.4094 44.5991C58.2022 44.808 59.0144 44.3323 59.2193 43.5317C59.4282 42.7389 58.9525 41.9268 58.152 41.7218C56.1215 41.1959 52.0337 40.5423 47.4316 42.097C42.4233 43.7909 39.4531 47.1672 38.1266 49.0274C37.6471 49.6964 37.8054 50.6245 38.4783 51.1002Z" fill="#763201"/>
<path d="M36.2929 45.1709C36.0764 45.9637 36.5405 46.7759 37.3333 46.9924C37.4609 47.0311 37.6001 47.0427 37.7278 47.0427C38.3814 47.0427 38.9769 46.6057 39.1626 45.9521C39.6769 44.0918 41.0421 40.5647 44.519 37.7841C47.7058 35.2316 51.1323 34.5548 52.8958 34.3885C53.7079 34.3111 54.3113 33.5879 54.234 32.7642C54.1566 31.9443 53.4218 31.3564 52.6097 31.426C50.0572 31.6735 46.2632 32.5747 42.6586 35.4636C38.5281 38.7741 36.8963 42.9703 36.2929 45.1709Z" fill="#763201"/>
<path d="M72.4498 39.8344C72.3299 39.4786 72.0244 39.2118 71.6492 39.1615L68.5785 38.7167L67.2017 35.9322C67.0315 35.5957 66.6873 35.3792 66.3122 35.3792C65.937 35.3792 65.589 35.5957 65.4227 35.9322L64.0459 38.7129L60.9751 39.1576C60.6 39.2079 60.2906 39.4748 60.1746 39.8306C60.0547 40.1864 60.1552 40.5847 60.4221 40.8515L62.6497 43.0211L62.1237 46.0802C62.0657 46.4554 62.2127 46.8228 62.5182 47.0509C62.8237 47.2675 63.2298 47.2985 63.5586 47.1283L66.3121 45.6819L69.0657 47.1283C69.2126 47.2056 69.3712 47.2366 69.5298 47.2366C69.7386 47.2366 69.9359 47.1786 70.1137 47.0471C70.4193 46.8305 70.5701 46.4515 70.5082 46.0763L69.9823 43.0173L72.2099 40.8476C72.469 40.5847 72.5697 40.1902 72.4498 39.8344ZM68.2227 41.9615C67.9868 42.1896 67.8863 42.5145 67.9365 42.8432L68.215 44.4366L66.7802 43.6825C66.6332 43.6051 66.4747 43.5742 66.3161 43.5742C66.1575 43.5742 65.999 43.6129 65.852 43.6825L64.4172 44.4366L64.6957 42.8432C64.7537 42.5261 64.6454 42.1896 64.4095 41.9615L63.2492 40.8322L64.8542 40.5963C65.1791 40.546 65.4575 40.3488 65.5968 40.051L66.3084 38.5968L67.02 40.051C67.1669 40.3488 67.4454 40.546 67.7625 40.5963L69.3675 40.8322L68.2227 41.9615Z" fill="#763201"/>
<path d="M65.4184 28.9436L62.7266 28.5491L61.5199 26.1127C61.3498 25.7762 60.8857 25.7762 60.7194 26.1127L59.5127 28.5491L56.8209 28.9436C56.4535 28.9939 56.3066 29.4502 56.5734 29.7055L58.5226 31.6083L58.0663 34.2922C58.0083 34.6596 58.3834 34.9342 58.7083 34.7679L61.1138 33.4995L63.5194 34.7679C63.8442 34.9381 64.231 34.6596 64.1614 34.2922L63.705 31.6083L65.6542 29.7055C65.9327 29.4464 65.7858 29.0016 65.4184 28.9436Z" fill="#763201"/>
<path d="M47.4589 27.605C47.5363 28.3785 48.1822 28.9431 48.9324 28.9431C48.9827 28.9431 49.033 28.9431 49.0794 28.9315C51.6319 28.684 55.4259 27.7829 59.0305 24.894C63.1609 21.5874 64.793 17.3989 65.3963 15.1906C65.6129 14.3978 65.1488 13.5856 64.3559 13.3691C63.5631 13.1526 62.751 13.6166 62.5344 14.4095C62.0201 16.2697 60.6549 19.7968 57.178 22.5774C53.9912 25.1299 50.5647 25.8067 48.8012 25.9731C47.9736 26.062 47.3816 26.7851 47.4589 27.605Z" fill="#763201"/>
<path d="M70.0947 4.49706C69.9748 4.14125 69.6692 3.8744 69.2941 3.82413L66.2118 3.37937L64.835 0.598692C64.6648 0.26223 64.3206 0.0456543 63.9455 0.0456543C63.5703 0.0456543 63.2223 0.26223 63.056 0.598692L61.6792 3.37937L58.6084 3.82413C58.2333 3.8744 57.9239 4.14125 57.8079 4.49706C57.688 4.85287 57.7885 5.25121 58.0554 5.50643L60.283 7.67605L59.757 10.7351C59.699 11.1103 59.846 11.4777 60.1515 11.7059C60.457 11.9224 60.8631 11.9534 61.1919 11.7832L63.9454 10.3368L66.699 11.7832C66.846 11.8606 67.0045 11.8915 67.1631 11.8915C67.3719 11.8915 67.5692 11.8335 67.747 11.702C68.0526 11.4854 68.2034 11.1064 68.1415 10.7313L67.6156 7.67218L69.8432 5.50256C70.1139 5.25118 70.2029 4.86444 70.0947 4.49706ZM65.856 6.62797C65.6201 6.85615 65.5196 7.181 65.5698 7.49814L65.8483 9.09154L64.4096 8.349C64.2627 8.27165 64.1041 8.24071 63.9455 8.24071C63.787 8.24071 63.6361 8.27165 63.4892 8.349L62.0544 9.10315L62.3328 7.50974C62.3909 7.19262 62.2826 6.85615 62.0467 6.63957L60.8864 5.51031L62.4914 5.28213C62.8162 5.23185 63.0947 5.03462 63.2339 4.73682L63.9455 3.28263L64.6571 4.73682C64.8041 5.03462 65.0826 5.23185 65.3997 5.28213L67.0047 5.51031L65.856 6.62797Z" fill="#763201"/>
<path d="M34.0542 50.6744C35.0133 50.6744 35.7868 49.8932 35.7868 48.9418C35.7868 47.9827 35.0056 47.2092 34.0542 47.2092C33.0951 47.2092 32.3216 47.9904 32.3216 48.9418C32.3139 49.8932 33.0951 50.6744 34.0542 50.6744Z" fill="#763201"/>
<path d="M30.8054 42.0886C29.8462 42.0886 29.0728 42.8698 29.0728 43.8212C29.0728 44.7803 29.854 45.5538 30.8054 45.5538C31.7645 45.5538 32.538 44.7726 32.538 43.8212C32.538 42.8737 31.7684 42.0886 30.8054 42.0886Z" fill="#763201"/>
<path d="M54.4767 17.1135C54.4767 16.1543 53.6955 15.3809 52.7441 15.3809C51.785 15.3809 51.0115 16.1621 51.0115 17.1135C51.0115 18.0726 51.7927 18.8461 52.7441 18.8461C53.7071 18.8461 54.4767 18.0726 54.4767 17.1135Z" fill="#763201"/>
<path d="M69.2709 24.724C69.2709 27.0367 65.8057 27.0367 65.8057 24.724C65.8057 22.4152 69.2709 22.4152 69.2709 24.724Z" fill="#763201"/>
</svg>
