<svg width="30" height="34" viewBox="0 0 30 34" fill="none" xmlns="http://www.w3.org/2000/svg">
<path d="M29.25 27.0834V28.6667H0.75V27.0834L3.91667 23.9167V14.4167C3.91667 9.50842 7.13083 5.18591 11.8333 3.79258V3.33341C11.8333 2.49356 12.167 1.68811 12.7608 1.09424C13.3547 0.500378 14.1601 0.166748 15 0.166748C15.8399 0.166748 16.6453 0.500378 17.2392 1.09424C17.833 1.68811 18.1667 2.49356 18.1667 3.33341V3.79258C22.8692 5.18591 26.0833 9.50842 26.0833 14.4167V23.9167L29.25 27.0834ZM18.1667 30.2501C18.1667 31.0899 17.833 31.8954 17.2392 32.4893C16.6453 33.0831 15.8399 33.4167 15 33.4167C14.1601 33.4167 13.3547 33.0831 12.7608 32.4893C12.167 31.8954 11.8333 31.0899 11.8333 30.2501" fill="#646464"/>
</svg>
