<svg width="90" height="72" viewBox="0 0 90 72" fill="none" xmlns="http://www.w3.org/2000/svg">
<path d="M89.274 22.3071C89.287 22.2941 89.2957 22.2767 89.3044 22.2637C89.3087 22.255 89.3174 22.2463 89.3218 22.2376C89.3479 22.2028 89.3696 22.1637 89.387 22.1202C89.387 22.1159 89.3913 22.1159 89.3913 22.1159C89.3913 22.1115 89.3957 22.1115 89.3957 22.1072C89.3957 22.1029 89.3957 22.1029 89.4 22.1029C89.4131 22.0724 89.4261 22.042 89.4391 22.0116C89.4435 22.0029 89.4435 21.9942 89.4478 21.9855C89.4522 21.9768 89.4522 21.9681 89.4565 21.9594C89.4609 21.942 89.4652 21.929 89.4696 21.9159C89.4739 21.8986 89.4783 21.8812 89.4783 21.8638C89.4826 21.8464 89.487 21.829 89.487 21.8116C89.4913 21.7855 89.4913 21.7595 89.4957 21.7377C89.4957 21.729 89.5 21.7203 89.5 21.7073V21.6725V21.6421V21.603L88.974 11.0274C88.9697 10.9926 88.9697 10.9578 88.9653 10.9187C88.961 10.897 88.9567 10.8752 88.9523 10.8535C88.948 10.8405 88.948 10.8318 88.9436 10.8187C88.9349 10.7883 88.9262 10.7622 88.9175 10.7318C88.9175 10.7274 88.9132 10.7231 88.9132 10.7187C88.8219 10.4623 88.6393 10.2493 88.4003 10.1276L82.7842 6.72842L77.1117 3.29454C77.1117 3.29454 77.103 3.29019 77.0987 3.28584C77.0726 3.2728 77.0465 3.25542 77.0204 3.24238C76.9987 3.23368 76.977 3.22499 76.9552 3.2163C76.9465 3.21195 76.9335 3.2076 76.9248 3.20325C76.8987 3.19456 76.8726 3.18587 76.8509 3.17717C76.8422 3.17283 76.8379 3.17283 76.8292 3.16848C76.8031 3.15979 76.777 3.15544 76.7509 3.15109C76.7422 3.15109 76.7335 3.14675 76.7248 3.14675C76.7031 3.1424 76.677 3.1424 76.6553 3.13805C76.6423 3.13805 76.6336 3.13371 76.6249 3.13371H76.5597H76.5205C76.5032 3.13371 76.4814 3.13805 76.464 3.13805C76.4466 3.13805 76.4336 3.1424 76.4162 3.1424C76.3988 3.14675 76.3814 3.15109 76.3597 3.15109C76.3423 3.15544 76.3293 3.15544 76.3119 3.15979C76.2902 3.16413 76.2684 3.17283 76.2467 3.17717C76.2337 3.18152 76.2206 3.18587 76.2119 3.19021C76.1771 3.20325 76.1424 3.21629 76.1119 3.22934L66.497 7.66738C66.484 7.67173 66.4709 7.68042 66.4579 7.68477C66.4492 7.68911 66.4405 7.69346 66.4318 7.69781C66.4188 7.70215 66.4101 7.71085 66.4014 7.71519C66.3927 7.71954 66.3883 7.72389 66.3796 7.72823C66.3579 7.74127 66.3362 7.75431 66.3144 7.7717C66.3014 7.7804 66.2884 7.79343 66.2753 7.80213C66.2623 7.81517 66.2449 7.82386 66.2318 7.8369C66.2188 7.84994 66.2101 7.85864 66.1971 7.87168C66.1884 7.87602 66.184 7.88472 66.1797 7.88906C66.171 7.89776 66.1666 7.9021 66.1579 7.9108C66.1362 7.93253 66.1145 7.95861 66.0971 7.98469C66.0971 7.98904 66.0927 7.98904 66.0927 7.99339C66.0884 7.99773 66.0884 7.99773 66.0884 8.00208L66.0841 8.00643C66.058 8.0412 66.0319 8.08032 66.0102 8.11944C66.0058 8.12813 66.0015 8.13683 65.9971 8.14552C65.9928 8.15421 65.9841 8.16291 65.9797 8.17595C65.9754 8.18899 65.9667 8.20203 65.9623 8.21507C65.9537 8.23245 65.945 8.24984 65.9406 8.27157C65.9319 8.28896 65.9276 8.30635 65.9232 8.32808C65.9189 8.34112 65.9145 8.35416 65.9102 8.37155C65.9058 8.38459 65.9015 8.40198 65.9015 8.41502C65.8971 8.42371 65.8971 8.4324 65.8971 8.4411C65.8928 8.45414 65.8928 8.46283 65.8885 8.47587C65.8841 8.49326 65.8841 8.51065 65.8798 8.53238C65.8754 8.54977 65.8754 8.56715 65.8754 8.58454V8.58889V8.62801V8.68451C65.8754 8.69755 65.8798 8.7106 65.8798 8.72364V8.72798C65.8798 8.73668 65.8798 8.74537 65.8841 8.75406C65.8841 8.7671 65.8885 8.78014 65.8885 8.78884C65.8928 8.80188 65.8928 8.81492 65.8971 8.82796C65.9015 8.84969 65.9058 8.86708 65.9102 8.88881C65.9102 8.89316 65.9102 8.89316 65.9145 8.89751V8.90185L68.2053 17.9909C62.7675 16.3088 56.8818 16.3653 51.4314 18.1822C48.7582 19.0733 46.2589 20.3642 44.0072 21.9943C41.1687 19.9339 37.9435 18.4387 34.553 17.5911L41.2209 11.0014L41.2253 10.9971C41.2296 10.9927 41.2296 10.9927 41.2296 10.9927C41.247 10.9753 41.26 10.9623 41.2731 10.9449C41.2818 10.9362 41.2905 10.9275 41.2992 10.9145C41.3079 10.9058 41.3122 10.8971 41.3209 10.884C41.3252 10.8753 41.3296 10.871 41.3383 10.8623C41.347 10.8493 41.3557 10.8406 41.3644 10.8275C41.3731 10.8101 41.3817 10.7971 41.3948 10.7797C41.4035 10.7667 41.4122 10.7536 41.4165 10.7406V10.7362V10.7319C41.4252 10.7189 41.4296 10.7058 41.4383 10.6928C41.4469 10.6754 41.4556 10.658 41.4643 10.6406C41.4687 10.6319 41.473 10.6189 41.4774 10.6102C41.4817 10.6015 41.4817 10.5928 41.4861 10.5841C41.4904 10.5711 41.4948 10.5537 41.4991 10.5406C41.5035 10.5276 41.5035 10.5189 41.5078 10.5059C41.5121 10.4841 41.5208 10.4624 41.5252 10.4407C41.5295 10.4276 41.5295 10.4102 41.5339 10.3972C41.5382 10.3798 41.5426 10.3581 41.5426 10.3407C41.5426 10.332 41.5426 10.319 41.5469 10.3103V10.2798C41.5513 10.2364 41.5469 10.1929 41.5426 10.1494V10.1407V10.132C41.5426 10.1234 41.5382 10.119 41.5382 10.1103C41.5339 10.0842 41.5295 10.0538 41.5252 10.0277C41.5208 10.019 41.5208 10.006 41.5165 9.9973C41.5121 9.9886 41.5121 9.97991 41.5078 9.97122C41.5035 9.95383 41.4991 9.94079 41.4948 9.92775C41.4904 9.91036 41.4817 9.89297 41.4774 9.87124C41.473 9.8582 41.4687 9.84081 41.46 9.82777C41.4513 9.80604 41.4383 9.77996 41.4296 9.75823C41.4252 9.74953 41.4209 9.74084 41.4165 9.73215C41.4122 9.72345 41.4035 9.71041 41.3991 9.70172C41.3948 9.69303 41.3904 9.68433 41.3817 9.67564C41.3731 9.6626 41.3687 9.6539 41.36 9.64086L35.4311 0.869154C35.4311 0.869154 35.4311 0.864807 35.4267 0.864807C35.4094 0.838726 35.3876 0.808299 35.3659 0.786566C35.3528 0.769178 35.3398 0.756139 35.3268 0.743099C35.3181 0.730058 35.3094 0.721365 35.2963 0.712671C35.2789 0.695284 35.2616 0.682244 35.2442 0.669204C35.2355 0.66051 35.2268 0.651818 35.2181 0.643124C35.2007 0.630083 35.1833 0.617043 35.1659 0.604003C35.1529 0.595309 35.1442 0.586616 35.1355 0.582269C35.1181 0.573575 35.1051 0.564882 35.0877 0.551842C35.0747 0.543149 35.0616 0.534453 35.0442 0.525759C35.0312 0.517066 35.0181 0.512721 35.0051 0.508375C34.9877 0.49968 34.9703 0.490987 34.9486 0.482294C34.9356 0.477948 34.9269 0.473601 34.9182 0.469254C34.8964 0.460561 34.8747 0.451867 34.853 0.44752C34.8443 0.443174 34.8356 0.443173 34.8269 0.438827C34.8052 0.430133 34.7791 0.425785 34.753 0.421438C34.74 0.417091 34.7313 0.417093 34.7226 0.417093C34.7008 0.412746 34.6791 0.408399 34.653 0.408399C34.6269 0.404053 34.6009 0.404053 34.5748 0.404053H34.5487H21.2779H21.2648C21.2344 0.404053 21.204 0.404053 21.1735 0.408399C21.1518 0.412746 21.1301 0.412746 21.1127 0.417093C21.0996 0.421439 21.0866 0.421438 21.0736 0.421438C21.0518 0.425785 21.0301 0.430133 21.004 0.438827C20.991 0.443173 20.9823 0.443174 20.9736 0.44752C20.9518 0.456213 20.9301 0.460561 20.9127 0.469254C20.8997 0.473601 20.8866 0.477948 20.878 0.482294C20.8606 0.490987 20.8432 0.49968 20.8258 0.508375C20.8127 0.517067 20.7954 0.521414 20.7823 0.530108C20.7693 0.538801 20.7562 0.547495 20.7432 0.551842C20.7258 0.560535 20.7084 0.569229 20.6954 0.582269C20.6823 0.590962 20.6737 0.595309 20.665 0.604003C20.6476 0.617043 20.6302 0.630083 20.6128 0.643124C20.6041 0.651818 20.5954 0.660509 20.5867 0.664855C20.5693 0.677896 20.5519 0.695284 20.5346 0.708325C20.5215 0.721365 20.5128 0.730058 20.5041 0.743099C20.4911 0.756139 20.4781 0.769179 20.4694 0.782219C20.4476 0.8083 20.4259 0.838727 20.4042 0.869154L14.4796 9.64086C14.4709 9.6539 14.4665 9.66694 14.4578 9.67564C14.4535 9.68433 14.4448 9.69303 14.4404 9.70172C14.4318 9.71041 14.4274 9.72345 14.4231 9.73215C14.4187 9.73649 14.4187 9.74519 14.4144 9.74953C14.4013 9.77561 14.3883 9.80169 14.3796 9.82777C14.3752 9.84081 14.3709 9.85385 14.3666 9.86689C14.3579 9.88428 14.3535 9.90602 14.3448 9.92775C14.3405 9.94079 14.3361 9.95818 14.3318 9.97122C14.3274 9.97991 14.3274 9.9886 14.3231 9.9973C14.3187 10.006 14.3187 10.019 14.3144 10.0277C14.31 10.0538 14.3057 10.0799 14.3013 10.1103C14.3013 10.119 14.297 10.1234 14.297 10.132V10.1407V10.1494C14.2927 10.1929 14.2927 10.2364 14.2927 10.2798V10.3103C14.2927 10.319 14.2927 10.332 14.297 10.3407C14.3013 10.3581 14.3014 10.3798 14.3057 10.3972C14.31 10.4146 14.31 10.4276 14.3144 10.4407C14.3187 10.4624 14.3231 10.4841 14.3318 10.5059C14.3361 10.5189 14.3361 10.5276 14.3405 10.5406C14.3448 10.5537 14.3492 10.5711 14.3535 10.5841C14.3579 10.5928 14.3579 10.6015 14.3622 10.6102C14.3666 10.6189 14.3709 10.6319 14.3752 10.6406C14.3839 10.658 14.3926 10.6754 14.4013 10.6928C14.41 10.7058 14.4144 10.7189 14.4231 10.7362V10.7406V10.7449C14.4318 10.758 14.4361 10.771 14.4448 10.7797C14.4535 10.7971 14.4622 10.8101 14.4752 10.8275C14.4839 10.8406 14.4926 10.8493 14.5013 10.8623C14.5056 10.871 14.51 10.8753 14.5187 10.884C14.5274 10.8927 14.5317 10.9014 14.5404 10.9145C14.5491 10.9232 14.5578 10.9318 14.5665 10.9449C14.5795 10.9623 14.5926 10.9753 14.61 10.9927C14.6143 10.9971 14.6143 10.9971 14.6143 10.9971L14.6187 11.0014L21.2866 17.5911C15.7619 18.969 10.7588 22.0595 7.03316 26.4367C2.82112 31.3876 0.5 37.6945 0.5 44.2064C0.5 59.3334 12.8061 71.6339 27.9275 71.6339C33.9346 71.6339 39.4947 69.6909 44.0192 66.4048C44.6364 66.8482 45.271 67.2741 45.923 67.6653C50.261 70.2908 55.1294 71.6382 60.0763 71.6382C62.2758 71.6382 64.4882 71.3731 66.6746 70.8341C73.7902 69.0867 79.7975 64.6704 83.592 58.4023C86.9607 52.8341 88.2474 46.2353 87.2042 39.8202C86.2826 34.1476 83.605 28.9099 79.5931 24.8713L88.7082 22.6849C88.7082 22.6849 88.7125 22.6849 88.7125 22.6806C88.756 22.6675 88.7995 22.6545 88.8429 22.6415C88.8473 22.6371 88.8516 22.6371 88.856 22.6371C88.8647 22.6328 88.869 22.6328 88.8734 22.6284C88.8994 22.6154 88.9299 22.6023 88.9559 22.5893C88.969 22.585 88.9777 22.5763 88.9907 22.5719H88.9951C88.9994 22.5676 89.0038 22.5676 89.0081 22.5632C89.0298 22.5502 89.0516 22.5371 89.0733 22.5198C89.082 22.5154 89.0907 22.5067 89.0994 22.5024C89.1081 22.4937 89.1168 22.4893 89.1255 22.4806C89.1342 22.4719 89.1429 22.4676 89.1472 22.4589C89.1602 22.4459 89.1776 22.4328 89.1907 22.4241C89.1994 22.4154 89.2081 22.4067 89.2167 22.398L89.2385 22.3763C89.2428 22.372 89.2472 22.3676 89.2515 22.3633C89.2602 22.3502 89.2689 22.3415 89.2819 22.3285C89.2906 22.3198 89.2993 22.3111 89.308 22.2981L89.274 22.3071ZM76.4905 5.40646L80.1809 7.64067L74.0085 11.4006C73.9998 11.4093 73.9868 11.4136 73.9781 11.4223C73.9563 11.4354 73.9346 11.4528 73.9129 11.4658C73.8998 11.4788 73.8824 11.4875 73.8694 11.5006C73.852 11.518 73.8346 11.531 73.8129 11.5527L73.8085 11.5571L69.201 8.77083L76.4862 5.41083L76.4905 5.40646ZM80.7026 14.7824L77.3903 12.7785L76.6122 12.3047L81.0373 9.60973L80.7026 14.7824ZM73.1392 13.6349L71.244 21.3591L68.6056 10.8922L73.1392 13.6349ZM70.7094 26.6754C75.3908 29.5095 78.6857 33.9953 79.9941 39.3075C81.3024 44.6198 80.4592 50.1223 77.6251 54.8039C71.7787 64.4667 59.1599 67.5707 49.4977 61.7195C49.389 61.6543 49.2804 61.5804 49.1674 61.5109C53.0229 56.786 55.3354 50.757 55.3354 44.1974C55.3354 37.8642 53.1534 31.7566 49.1717 26.8761C55.5266 22.8814 63.8546 22.5294 70.7059 26.6718L70.7094 26.6754ZM75.0474 14.7866L79.2289 17.3164L73.1044 22.7194L75.0517 14.7866H75.0474ZM82.6673 16.9122C82.6673 16.9122 82.6673 16.9079 82.6716 16.9035C82.6803 16.8818 82.6846 16.8557 82.689 16.834C82.6933 16.8166 82.6977 16.7949 82.702 16.7775C82.7064 16.7514 82.7107 16.7253 82.7107 16.7036C82.7107 16.6906 82.7151 16.6775 82.7151 16.6645L83.1802 9.45319L86.8706 11.6874L87.2705 19.6984L82.6629 16.9122L82.6673 16.9122ZM68.8189 20.4418L69.6404 23.7019C62.1771 20.2245 53.5576 21.1678 47.0769 25.7231C47.0073 25.7622 46.9421 25.8057 46.8813 25.8622C45.5729 26.8011 44.3558 27.8921 43.2561 29.1266C43.23 29.1527 43.2039 29.1831 43.1822 29.2092C42.2955 30.2133 41.487 31.3087 40.7654 32.491C38.2095 36.7074 37.1185 41.5235 37.6054 46.4184C38.0444 50.8216 39.8005 55.0683 42.5781 58.4852C41.9522 59.1285 41.2827 59.7327 40.5742 60.2891C33.7194 51.9869 32.8414 40.3806 38.4617 31.0968C39.2702 29.758 40.1874 28.5192 41.1915 27.3847C41.2045 27.3717 41.2175 27.3586 41.2306 27.3413C42.2521 26.1938 43.3649 25.1504 44.5515 24.2246C44.6211 24.1812 44.6863 24.129 44.7471 24.0725C51.4672 18.9303 60.4994 17.3742 68.8196 20.443L68.8189 20.4418ZM43.9986 56.8626C38.7173 50.173 38.1131 40.9757 42.5773 33.5947C43.0163 32.8731 43.4901 32.1864 43.9986 31.5387C46.8371 35.1378 48.3845 39.5888 48.3845 44.2053C48.3845 48.978 46.7414 53.3769 43.9943 56.863L43.9986 56.8626ZM21.839 2.52851H26.1553L22.8214 8.93994C22.817 8.95298 22.8127 8.96167 22.8083 8.97471C22.7953 8.99645 22.7866 9.02253 22.7779 9.04426C22.7692 9.06165 22.7649 9.07903 22.7605 9.09642C22.7518 9.11816 22.7475 9.14424 22.7388 9.16597V9.17032H17.3532L21.8435 2.5241L21.839 2.52851ZM33.9748 2.52851L38.4651 9.17473H33.0795V9.17039C33.0752 9.14431 33.0665 9.12257 33.0578 9.10084C33.0534 9.08345 33.0447 9.06606 33.0404 9.04868C33.0317 9.0226 33.0187 9.00086 33.01 8.97913C33.0056 8.96609 33.0013 8.9574 32.9969 8.94436L29.663 2.53293H33.9793L33.9748 2.52851ZM25.516 8.3662L27.9067 3.76736L30.2974 8.3662H25.5116H25.516ZM30.3497 11.3002L27.9068 19.0939L25.464 11.3002H30.3497ZM27.9068 23.7142C31.8145 23.7142 35.5658 24.8053 38.8345 26.8743C38.0347 27.8566 37.3001 28.8955 36.635 29.9909C33.5358 35.1114 32.21 40.9578 32.8056 46.8994C33.3402 52.2329 35.4657 57.3794 38.8302 61.5178C35.6657 63.5217 31.9189 64.6823 27.9112 64.6823C16.6188 64.6823 7.42959 55.4933 7.42959 44.2007C7.42959 38.7281 9.55954 33.5859 13.4281 29.7169C17.2967 25.8483 22.4389 23.7185 27.9118 23.7185L27.9068 23.7142ZM42.2593 23.3622C41.5595 23.9577 40.8944 24.5923 40.2554 25.2573C37.2649 23.3013 33.8962 22.1016 30.3579 21.719L32.7442 19.3588C36.1434 20.0195 39.3948 21.3887 42.2549 23.3578L42.2593 23.3622ZM30.2014 18.8894L32.579 11.3H37.8777L30.2014 18.8894ZM23.2335 11.3L25.6112 18.8894L17.9349 11.3H23.2335ZM2.60397 44.2C2.60397 32.0208 11.1757 21.6576 23.06 19.3631L25.4506 21.7234C20.3388 22.2711 15.6052 24.527 11.9194 28.213C7.64659 32.4858 5.29932 38.1627 5.29932 44.2001C5.29932 56.6665 15.4403 66.8115 27.9107 66.8115C32.753 66.8115 37.2432 65.2815 40.9245 62.6778C40.9941 62.6387 41.0636 62.5953 41.1245 62.5387C41.1332 62.5344 41.1375 62.5257 41.1419 62.5214C42.4329 61.5868 43.6239 60.5175 44.6888 59.3352C44.6975 59.3308 44.7018 59.3221 44.7105 59.3178C44.7801 59.2526 44.8409 59.183 44.8888 59.1091C48.3878 55.1276 50.5178 49.9071 50.5178 44.2003C50.5178 38.9712 48.7182 33.9333 45.4278 29.9035C46.0581 29.2558 46.7318 28.656 47.4316 28.1039C51.1655 32.6289 53.2128 38.3058 53.2128 44.2001C53.2128 58.1531 41.8637 69.5022 27.9107 69.5022C13.9622 69.5022 2.60865 58.1531 2.60865 44.2001L2.60397 44.2ZM81.745 57.2973C78.2459 63.0784 72.7038 67.1514 66.1407 68.7643C59.5771 70.377 52.7786 69.3381 46.9978 65.839C46.5718 65.5782 46.1502 65.3087 45.7372 65.0218C46.4371 64.422 47.1065 63.7916 47.7411 63.1266C47.9584 63.2657 48.1758 63.4048 48.3931 63.5396C52.0443 65.7478 56.0781 66.804 60.0638 66.7996C67.7184 66.7996 75.1996 62.918 79.4415 55.9023C82.5668 50.7341 83.497 44.6612 82.0539 38.798C80.8108 33.734 77.9246 29.3569 73.8386 26.2404L77.103 25.458C86.0834 33.5778 88.0481 46.8788 81.741 57.2976L81.745 57.2973ZM75.1683 23.7318L81.1321 18.4722L85.6657 21.215L75.1683 23.7318Z" fill="#763201"/>
</svg>
